<svg width="118" height="84" viewBox="0 0 118 84" fill="none" xmlns="http://www.w3.org/2000/svg">
<path fill-rule="evenodd" clip-rule="evenodd" d="M57.1562 36.75C58.1745 36.75 59 37.3376 59 38.0625V82.6875C59 83.4124 58.1745 84 57.1562 84C56.138 84 55.3125 83.4124 55.3125 82.6875V38.0625C55.3125 37.3376 56.138 36.75 57.1562 36.75Z" fill="#D4D4D4" fill-opacity="0.3"/>
<path fill-rule="evenodd" clip-rule="evenodd" d="M49.7812 5.25C50.7995 5.25 51.625 5.83763 51.625 6.5625V35.4375C51.625 36.1624 50.7995 36.75 49.7812 36.75C48.763 36.75 47.9375 36.1624 47.9375 35.4375V6.5625C47.9375 5.83763 48.763 5.25 49.7812 5.25Z" fill="#D4D4D4" fill-opacity="0.3"/>
<path fill-rule="evenodd" clip-rule="evenodd" d="M64.5312 5.25C65.5495 5.25 66.375 5.83763 66.375 6.5625V32.8125C66.375 33.5374 65.5495 34.125 64.5312 34.125C63.513 34.125 62.6875 33.5374 62.6875 32.8125V6.5625C62.6875 5.83763 63.513 5.25 64.5312 5.25Z" fill="#D4D4D4" fill-opacity="0.3"/>
<path fill-rule="evenodd" clip-rule="evenodd" d="M57.1562 0C58.1745 0 59 0.587626 59 1.3125V27.5625C59 28.2874 58.1745 28.875 57.1562 28.875C56.138 28.875 55.3125 28.2874 55.3125 27.5625V1.3125C55.3125 0.587626 56.138 0 57.1562 0Z" fill="#D4D4D4" fill-opacity="0.3"/>
<path fill-rule="evenodd" clip-rule="evenodd" d="M69.5225 37.1344C70.2425 37.647 70.2425 38.478 69.5225 38.9906L65.835 41.6156C65.1149 42.1281 63.9476 42.1281 63.2275 41.6156C62.5075 41.103 62.5075 40.272 63.2275 39.7594L66.915 37.1344C67.6351 36.6219 68.8024 36.6219 69.5225 37.1344Z" fill="#D4D4D4" fill-opacity="0.3"/>
<path fill-rule="evenodd" clip-rule="evenodd" d="M69.5225 45.0094C70.2425 45.522 70.2425 46.353 69.5225 46.8656L65.835 49.4906C65.1149 50.0031 63.9476 50.0031 63.2275 49.4906C62.5075 48.978 62.5075 48.147 63.2275 47.6344L66.915 45.0094C67.6351 44.4969 68.8024 44.4969 69.5225 45.0094Z" fill="#D4D4D4" fill-opacity="0.3"/>
<path fill-rule="evenodd" clip-rule="evenodd" d="M69.5225 52.8844C70.2425 53.397 70.2425 54.228 69.5225 54.7406L65.835 57.3656C65.1149 57.8781 63.9476 57.8781 63.2275 57.3656C62.5075 56.853 62.5075 56.022 63.2275 55.5094L66.915 52.8844C67.6351 52.3719 68.8024 52.3719 69.5225 52.8844Z" fill="#D4D4D4" fill-opacity="0.3"/>
<path fill-rule="evenodd" clip-rule="evenodd" d="M44.79 39.7594C45.5101 39.2469 46.6774 39.2469 47.3975 39.7594L51.085 42.3844C51.805 42.897 51.805 43.728 51.085 44.2406C50.3649 44.7531 49.1976 44.7531 48.4775 44.2406L44.79 41.6156C44.07 41.103 44.07 40.272 44.79 39.7594Z" fill="#D4D4D4" fill-opacity="0.3"/>
<path fill-rule="evenodd" clip-rule="evenodd" d="M44.79 47.6344C45.5101 47.1219 46.6774 47.1219 47.3975 47.6344L51.085 50.2594C51.805 50.772 51.805 51.603 51.085 52.1156C50.3649 52.6281 49.1976 52.6281 48.4775 52.1156L44.79 49.4906C44.07 48.978 44.07 48.147 44.79 47.6344Z" fill="#D4D4D4" fill-opacity="0.3"/>
<path fill-rule="evenodd" clip-rule="evenodd" d="M44.79 55.5094C45.5101 54.9969 46.6774 54.9969 47.3975 55.5094L51.085 58.1344C51.805 58.647 51.805 59.478 51.085 59.9906C50.3649 60.5031 49.1976 60.5031 48.4775 59.9906L44.79 57.3656C44.07 56.853 44.07 56.022 44.79 55.5094Z" fill="#D4D4D4" fill-opacity="0.3"/>
<path d="M59 32.8125C59 33.5374 58.1745 34.125 57.1562 34.125C56.138 34.125 55.3125 33.5374 55.3125 32.8125C55.3125 32.0876 56.138 31.5 57.1562 31.5C58.1745 31.5 59 32.0876 59 32.8125Z" fill="#D4D4D4" fill-opacity="0.3"/>
</svg>
