<svg width="100" height="84" viewBox="0 0 100 84" fill="none" xmlns="http://www.w3.org/2000/svg">
<path fill-rule="evenodd" clip-rule="evenodd" d="M39.1562 36.75C40.1745 36.75 41 37.3376 41 38.0625V82.6875C41 83.4124 40.1745 84 39.1562 84C38.138 84 37.3125 83.4124 37.3125 82.6875V38.0625C37.3125 37.3376 38.138 36.75 39.1562 36.75Z" fill="#DBEFDE" fill-opacity="0.1"/>
<path fill-rule="evenodd" clip-rule="evenodd" d="M31.7812 5.25C32.7995 5.25 33.625 5.83763 33.625 6.5625V35.4375C33.625 36.1624 32.7995 36.75 31.7812 36.75C30.763 36.75 29.9375 36.1624 29.9375 35.4375V6.5625C29.9375 5.83763 30.763 5.25 31.7812 5.25Z" fill="#DBEFDE" fill-opacity="0.1"/>
<path fill-rule="evenodd" clip-rule="evenodd" d="M46.5312 5.25C47.5495 5.25 48.375 5.83763 48.375 6.5625V32.8125C48.375 33.5374 47.5495 34.125 46.5312 34.125C45.513 34.125 44.6875 33.5374 44.6875 32.8125V6.5625C44.6875 5.83763 45.513 5.25 46.5312 5.25Z" fill="#DBEFDE" fill-opacity="0.1"/>
<path fill-rule="evenodd" clip-rule="evenodd" d="M39.1562 0C40.1745 0 41 0.587626 41 1.3125V27.5625C41 28.2874 40.1745 28.875 39.1562 28.875C38.138 28.875 37.3125 28.2874 37.3125 27.5625V1.3125C37.3125 0.587626 38.138 0 39.1562 0Z" fill="#DBEFDE" fill-opacity="0.1"/>
<path fill-rule="evenodd" clip-rule="evenodd" d="M51.5225 37.1344C52.2425 37.647 52.2425 38.478 51.5225 38.9906L47.835 41.6156C47.1149 42.1281 45.9476 42.1281 45.2275 41.6156C44.5075 41.103 44.5075 40.272 45.2275 39.7594L48.915 37.1344C49.6351 36.6219 50.8024 36.6219 51.5225 37.1344Z" fill="#DBEFDE" fill-opacity="0.1"/>
<path fill-rule="evenodd" clip-rule="evenodd" d="M51.5225 45.0094C52.2425 45.522 52.2425 46.353 51.5225 46.8656L47.835 49.4906C47.1149 50.0031 45.9476 50.0031 45.2275 49.4906C44.5075 48.978 44.5075 48.147 45.2275 47.6344L48.915 45.0094C49.6351 44.4969 50.8024 44.4969 51.5225 45.0094Z" fill="#DBEFDE" fill-opacity="0.1"/>
<path fill-rule="evenodd" clip-rule="evenodd" d="M51.5225 52.8844C52.2425 53.397 52.2425 54.228 51.5225 54.7406L47.835 57.3656C47.1149 57.8781 45.9476 57.8781 45.2275 57.3656C44.5075 56.853 44.5075 56.022 45.2275 55.5094L48.915 52.8844C49.6351 52.3719 50.8024 52.3719 51.5225 52.8844Z" fill="#DBEFDE" fill-opacity="0.1"/>
<path fill-rule="evenodd" clip-rule="evenodd" d="M26.79 39.7594C27.5101 39.2469 28.6774 39.2469 29.3975 39.7594L33.085 42.3844C33.805 42.897 33.805 43.728 33.085 44.2406C32.3649 44.7531 31.1976 44.7531 30.4775 44.2406L26.79 41.6156C26.07 41.103 26.07 40.272 26.79 39.7594Z" fill="#DBEFDE" fill-opacity="0.1"/>
<path fill-rule="evenodd" clip-rule="evenodd" d="M26.79 47.6344C27.5101 47.1219 28.6774 47.1219 29.3975 47.6344L33.085 50.2594C33.805 50.772 33.805 51.603 33.085 52.1156C32.3649 52.6281 31.1976 52.6281 30.4775 52.1156L26.79 49.4906C26.07 48.978 26.07 48.147 26.79 47.6344Z" fill="#DBEFDE" fill-opacity="0.1"/>
<path fill-rule="evenodd" clip-rule="evenodd" d="M26.79 55.5094C27.5101 54.9969 28.6774 54.9969 29.3975 55.5094L33.085 58.1344C33.805 58.647 33.805 59.478 33.085 59.9906C32.3649 60.5031 31.1976 60.5031 30.4775 59.9906L26.79 57.3656C26.07 56.853 26.07 56.022 26.79 55.5094Z" fill="#DBEFDE" fill-opacity="0.1"/>
<path d="M41 32.8125C41 33.5374 40.1745 34.125 39.1562 34.125C38.138 34.125 37.3125 33.5374 37.3125 32.8125C37.3125 32.0876 38.138 31.5 39.1562 31.5C40.1745 31.5 41 32.0876 41 32.8125Z" fill="#DBEFDE" fill-opacity="0.1"/>
</svg>
