<svg width="32" height="32" viewBox="0 0 32 32" fill="none" xmlns="http://www.w3.org/2000/svg">
<path d="M20.6159 9.15379C20.6159 8.84779 20.7374 8.55431 20.9538 8.33794C21.1702 8.12156 21.4637 8 21.7697 8H29.8462C30.1522 8 30.4457 8.12156 30.6621 8.33794C30.8784 8.55431 31 8.84779 31 9.15379V17.2303C31 17.5363 30.8784 17.8298 30.6621 18.0462C30.4457 18.2626 30.1522 18.3841 29.8462 18.3841C29.5402 18.3841 29.2467 18.2626 29.0304 18.0462C28.814 17.8298 28.6924 17.5363 28.6924 17.2303V11.939L16.8176 23.8162C16.7104 23.9236 16.5831 24.0089 16.4429 24.067C16.3028 24.1252 16.1525 24.1551 16.0007 24.1551C15.849 24.1551 15.6987 24.1252 15.5585 24.067C15.4183 24.0089 15.291 23.9236 15.1838 23.8162L9.07799 17.708L2.97213 23.8162C2.75548 24.0328 2.46164 24.1545 2.15525 24.1545C1.84886 24.1545 1.55502 24.0328 1.33836 23.8162C1.12171 23.5995 1 23.3057 1 22.9993C1 22.6929 1.12171 22.399 1.33836 22.1824L8.26111 15.2597C8.36828 15.1522 8.49561 15.067 8.63578 15.0088C8.77595 14.9506 8.92623 14.9207 9.07799 14.9207C9.22975 14.9207 9.38002 14.9506 9.5202 15.0088C9.66037 15.067 9.78769 15.1522 9.89487 15.2597L16.0007 21.3678L27.061 10.3076H21.7697C21.4637 10.3076 21.1702 10.186 20.9538 9.96964C20.7374 9.75327 20.6159 9.45979 20.6159 9.15379Z" fill="#F29721"/>
</svg>
