<svg width="34" height="32" viewBox="0 0 34 32" fill="none" xmlns="http://www.w3.org/2000/svg">
<path d="M4.01385 21.9753C3.17557 20 2.84939 17.8534 3.0642 15.7256C3.27901 13.5979 4.02818 11.5547 5.24535 9.77708C6.46252 7.99944 8.11011 6.54223 10.0422 5.53453C11.9742 4.52683 14.1311 3.99976 16.3217 4C16.5572 4 16.7831 4.09131 16.9496 4.25385C17.1162 4.41639 17.2097 4.63683 17.2097 4.8667V16.6416L25.74 24.9671C25.9065 25.1297 26 25.3501 26 25.5799C26 25.8097 25.9065 26.0301 25.74 26.1926C24.1911 27.7043 22.2841 28.8197 20.188 29.4403C18.0919 30.0608 15.8714 30.1673 13.7231 29.7502C11.5747 29.3332 9.56494 28.4055 7.87169 27.0493C6.17843 25.6931 4.8522 23.9503 4.01385 21.9753ZM4.83438 15.8963C4.60854 18.1343 5.07402 20.387 6.17094 22.3646C7.26786 24.3422 8.94602 25.9542 10.9895 26.9931C13.0329 28.0321 15.3482 28.4505 17.6373 28.1945C19.9264 27.9384 22.0847 27.0197 23.8343 25.5565L15.6948 17.6141C15.6121 17.5336 15.5464 17.438 15.5016 17.3327C15.4568 17.2274 15.4337 17.1145 15.4337 17.0005V5.76806C12.729 5.97157 10.1842 7.0982 8.24564 8.95025C6.30712 10.8023 5.10054 13.2615 4.83438 15.8963Z" fill="#F29721"/>
<path d="M19.2475 1.26443C19.3262 1.18063 19.4197 1.11415 19.5227 1.06877C19.6257 1.02339 19.7361 1.00003 19.8476 1C22.8867 1 25.8014 2.28115 27.9504 4.56161C30.0994 6.84207 31.3067 9.93504 31.3067 13.1601C31.3067 13.3986 31.2174 13.6274 31.0584 13.7961C30.8995 13.9648 30.6839 14.0595 30.4591 14.0595H19.8476C19.6228 14.0595 19.4072 13.9648 19.2482 13.7961C19.0893 13.6274 19 13.3986 19 13.1601V1.89942C19 1.66134 19.089 1.43299 19.2475 1.26443ZM20.6951 12.2625H29.576C29.3768 9.83402 28.3772 7.55782 26.7529 5.83415C25.1286 4.11048 22.9836 3.04972 20.6951 2.83841V12.2625ZM29.1895 25C30.9888 23.0908 31.9998 20.5013 32 17.8011H22.4055L29.1895 25Z" fill="#F29721"/>
</svg>
