<svg width="65" height="64" viewBox="0 0 65 64" fill="none" xmlns="http://www.w3.org/2000/svg">
<path d="M47.1875 46.5924L45.9355 47.7684L42.9415 44.882H45.4456L47.1875 46.5924ZM52.0323 46.5924C52.0323 48.0178 51.5242 49.2294 50.5081 50.2272C49.4919 51.2249 48.2581 51.7238 46.8064 51.7238H41.5806V50.0134H46.8064C47.7863 50.0134 48.6119 49.6748 49.2833 48.9978C49.9546 48.3207 50.2903 47.5189 50.2903 46.5924C50.2903 46.2717 50.245 45.9688 50.1542 45.6837C50.0635 45.3987 49.9456 45.1136 49.8004 44.8285V44.882H51.7056C51.8145 45.1314 51.8962 45.3987 51.9506 45.6837C52.005 45.9688 52.0323 46.2717 52.0323 46.5924ZM45.9355 47.7684L40.3286 42.3163L45.9355 36.8107L47.1875 38.0401L42.8327 42.3163L47.1875 46.5924L45.9355 47.7684ZM11.9677 40.7661V42.3163L7.6129 40.6058V39.0557L11.9677 40.7661ZM11.9677 38.0935V39.6437L7.6129 37.9332V36.3831L11.9677 38.0935ZM32.9377 53.8487C32.384 54.1921 31.6978 54.2442 31.0986 53.9885L6.21498 43.3693C5.47811 43.0548 5 42.331 5 41.5298V24.179C5 23.4338 5.41426 22.7505 6.07491 22.4058L32.8854 8.41847C33.3953 8.15247 33.995 8.11882 34.5314 8.32611L57.7209 17.2875C58.4917 17.5853 59 18.3266 59 19.153V36.5523C59 37.2447 58.6419 37.8878 58.0533 38.2524L54.4274 40.4989L53.502 39.0557L57.2581 36.7038V18.9577L33.7964 9.87082L6.74194 23.9822V41.7283L31.9456 52.4722L37.3347 49.1047L38.2601 50.5479L32.9377 53.8487ZM32 54.2895C31.9274 54.2895 31.8639 54.2806 31.8095 54.2628C31.755 54.245 31.6915 54.2183 31.6189 54.1826H31.6734L5.48214 43.0565C5.48214 43.0565 5.22681 42.9399 5.13609 42.7973C5.04536 42.6548 5 42.4944 5 42.3163V23.5011C5 23.2517 5.08165 23.0468 5.24496 22.8864C5.40827 22.7261 6.01973 22.4393 6.01297 22.4381C6.01297 22.4381 6.00706 22.6459 6.06149 22.6459C6.11593 22.6459 6.16129 22.6637 6.19758 22.6993L32.3266 32.9621C32.4718 33.0334 32.5988 33.1403 32.7077 33.2829C32.8165 33.4254 32.871 33.5857 32.871 33.7639V53.4343C32.871 53.6481 32.7893 53.8441 32.626 54.0223C32.626 54.0223 32.254 54.2895 32 54.2895ZM6.74194 41.7283L31.129 52.098V34.3519L6.74194 24.7305V41.7283ZM32 54.2895C31.746 54.2895 31.0357 54 31.4049 54.0223C31.4049 54.0223 31.129 53.6481 31.129 53.4343V33.7639C31.129 33.5857 31.1653 33.4343 31.2379 33.3096C31.3105 33.1849 31.4194 33.0869 31.5645 33.0156L57.6936 17.6214C57.7661 17.5857 57.8387 17.559 57.9113 17.5412C57.9839 17.5234 58.0564 17.5145 58.129 17.5145C57.0714 17 58.5917 17.5947 58.755 17.755C58.9183 17.9154 59 18.1203 59 18.3697V37.1849C59 37.3274 58.9637 37.461 58.8911 37.5857C58.8911 37.5857 58.752 37.8158 58.6431 37.887L54.4274 40.4989L53.502 39.0557L57.2581 36.7038V19.8664L32.871 34.245V51.8842L37.3347 49.1047L38.2601 50.5479L32.4899 54.1292C32.4173 54.1648 32.3357 54.2004 32.245 54.2361C32.1542 54.2717 32.0726 54.2895 32 54.2895ZM21.5484 36.3296C21.4758 36.3296 21.4123 36.3207 21.3579 36.3029C21.3034 36.2851 21.2581 36.2762 21.2218 36.2762L16.8669 34.5657C16.7218 34.4944 16.5948 34.3875 16.4859 34.245C16.377 34.1025 16.3226 33.9421 16.3226 33.7639V27.9376C16.3226 27.6882 16.4042 27.4833 16.5675 27.3229C16.7308 27.1626 16.9395 27.0824 17.1935 27.0824C17.2661 27.0824 17.3296 27.0913 17.3841 27.1091C17.4385 27.1269 17.4839 27.1359 17.5202 27.1359L21.875 28.8463C22.0202 28.9176 22.1472 29.0245 22.256 29.167C22.3649 29.3096 22.4194 29.4699 22.4194 29.6481V35.4744C22.4194 35.6882 22.3377 35.8842 22.1744 36.0624C22.0111 36.2405 21.8024 36.3296 21.5484 36.3296ZM18.0645 33.1759L20.6774 34.1915V30.2361L18.0645 29.2205V33.1759ZM21.5484 30.5033C21.4758 30.5033 21.4123 30.4944 21.3579 30.4766C21.3034 30.4588 21.2581 30.4499 21.2218 30.4499L16.8669 28.7394C16.7218 28.6682 16.5948 28.5612 16.4859 28.4187C16.377 28.2762 16.3226 28.1158 16.3226 27.9376C16.3226 27.7951 16.3589 27.6615 16.4315 27.5367C16.504 27.412 16.6129 27.2962 16.7581 27.1893L42.2883 11.6882C42.3246 11.6526 42.3881 11.6258 42.4788 11.608C42.5696 11.5902 42.6512 11.5813 42.7238 11.5813C42.7964 11.5813 42.8599 11.5813 42.9143 11.5813C42.9688 11.5813 43.0141 11.5991 43.0504 11.6347L47.4597 13.3452C47.6048 13.3808 47.7228 13.4699 47.8135 13.6125C47.9042 13.755 47.9496 13.9154 47.9496 14.0935C47.9496 14.2717 47.9133 14.4232 47.8407 14.5479C47.7681 14.6726 47.6774 14.7706 47.5686 14.8419L21.9839 30.3964C21.9476 30.4321 21.8841 30.4588 21.7933 30.4766C21.7026 30.4944 21.621 30.5033 21.5484 30.5033ZM19.0988 27.7773L21.4395 28.686L45.1734 14.2539L42.8327 13.3452L19.0988 27.7773ZM45.9355 56C44.375 56 42.9052 55.6971 41.5262 55.0913C40.1472 54.5212 38.9496 53.7372 37.9335 52.7394C36.9173 51.7416 36.1008 50.5657 35.4839 49.2116C34.9032 47.8575 34.6129 46.4143 34.6129 44.882C34.6129 43.3497 34.9032 41.9065 35.4839 40.5523C36.1008 39.1982 36.9173 38.0134 37.9335 36.9978C38.9496 35.9822 40.1472 35.1893 41.5262 34.6192C42.9052 34.049 44.375 33.7639 45.9355 33.7639C47.496 33.7639 48.9657 34.049 50.3448 34.6192C51.7238 35.1893 52.9214 35.9822 53.9375 36.9978C54.9536 38.0134 55.7702 39.1982 56.3871 40.5523C56.9677 41.9065 57.2581 43.3497 57.2581 44.882C57.2581 46.4143 56.9677 47.8575 56.3871 49.2116C55.7702 50.5657 54.9536 51.7416 53.9375 52.7394C52.9214 53.7372 51.7238 54.5212 50.3448 55.0913C48.9657 55.6971 47.496 56 45.9355 56ZM45.9355 35.4744C43.2863 35.4744 41.0272 36.392 39.1583 38.2272C37.2893 40.0624 36.3548 42.2806 36.3548 44.882C36.3548 47.4833 37.2893 49.7016 39.1583 51.5367C41.0272 53.3719 43.2863 54.2895 45.9355 54.2895C48.5847 54.2895 50.8437 53.3719 52.7127 51.5367C54.5816 49.7016 55.5161 47.4833 55.5161 44.882C55.5161 42.2806 54.5816 40.0624 52.7127 38.2272C50.8437 36.392 48.5847 35.4744 45.9355 35.4744ZM46.8064 51.7238H41.5806V50.0134H46.8064C47.7863 50.0134 48.6119 49.6748 49.2833 48.9978C49.9546 48.3207 50.2903 47.5189 50.2903 46.5924C50.2903 45.6303 49.9546 44.8196 49.2833 44.1604C48.6119 43.5011 47.7863 43.1715 46.8064 43.1715H41.5806V41.461H46.8064C48.2581 41.461 49.4919 41.9599 50.5081 42.9577C51.5242 43.9555 52.0323 45.167 52.0323 46.5924C52.0323 48.0178 51.5242 49.2294 50.5081 50.2272C49.4919 51.2249 48.2581 51.7238 46.8064 51.7238Z" fill="#F29721"/>
</svg>
