<svg width="65" height="64" viewBox="0 0 65 64" fill="none" xmlns="http://www.w3.org/2000/svg">
<g clip-path="url(#clip0_1283_10685)">
<path d="M45.6413 44.2344C45.6413 44.0156 45.7219 43.8359 45.883 43.6953C46.0442 43.5547 46.25 43.4844 46.5007 43.4844C46.7155 43.4844 46.9125 43.5547 47.0915 43.6953C47.2706 43.8359 47.3601 44.0156 47.3601 44.2344V55.25C47.3601 55.4688 47.2706 55.6484 47.0915 55.7891C46.9125 55.9297 46.7155 56 46.5007 56H9.86984C9.655 56 9.45806 55.9297 9.27902 55.7891C9.09999 55.6484 9.01047 55.4688 9.01047 55.25V36.3125C9.01047 36.0938 9.09999 35.9141 9.27902 35.7734C9.45806 35.6328 9.655 35.5625 9.86984 35.5625C10.1205 35.5625 10.3264 35.6328 10.4875 35.7734C10.6487 35.9141 10.7292 36.0938 10.7292 36.3125V54.5H45.6413V44.2344ZM17.4968 53.2813C17.4968 53.5 17.4073 53.6875 17.2282 53.8438C17.0492 54 16.8523 54.0781 16.6374 54.0781C16.3868 54.0781 16.1809 54 16.0197 53.8438C15.8586 53.6875 15.778 53.5 15.778 53.2813V43.7188C15.778 43 15.9302 42.3281 16.2346 41.7031C16.539 41.0781 16.9597 40.5312 17.4968 40.0625C18.0339 39.5938 18.6695 39.2266 19.4035 38.9609C20.1376 38.6953 20.8985 38.5625 21.6862 38.5625C22.5098 38.5625 23.2797 38.6953 23.9958 38.9609C24.712 39.2266 25.3386 39.5938 25.8757 40.0625C26.4128 40.5312 26.8425 41.0781 27.1648 41.7031C27.487 42.3281 27.6482 43 27.6482 43.7188V53.2813C27.6482 53.5 27.5586 53.6875 27.3796 53.8438C27.2006 54 27.0036 54.0781 26.7888 54.0781C26.5381 54.0781 26.3322 54 26.1711 53.8438C26.01 53.6875 25.9294 53.5 25.9294 53.2813V43.7188C25.9294 43.2188 25.813 42.7422 25.5803 42.2891C25.3475 41.8359 25.0521 41.4531 24.6941 41.1406C24.3002 40.7969 23.8436 40.5312 23.3244 40.3438C22.8052 40.1562 22.2592 40.0625 21.6862 40.0625C21.1133 40.0625 20.5673 40.1562 20.0481 40.3438C19.5289 40.5312 19.0902 40.7969 18.7321 41.1406C18.3383 41.4531 18.0339 41.8359 17.8191 42.2891C17.6042 42.7422 17.4968 43.2188 17.4968 43.7188V53.2813ZM33.1804 47.3281H41.0759V42.0781H33.1804V47.3281ZM41.9353 48.8281H32.321C32.0704 48.8281 31.8645 48.75 31.7033 48.5938C31.5422 48.4375 31.4616 48.2656 31.4616 48.0781V41.3281C31.4616 41.1094 31.5422 40.9297 31.7033 40.7891C31.8645 40.6484 32.0704 40.5781 32.321 40.5781H41.9353C42.1501 40.5781 42.3471 40.6484 42.5261 40.7891C42.7051 40.9297 42.7946 41.1094 42.7946 41.3281V48.0781C42.7946 48.2656 42.7051 48.4375 42.5261 48.5938C42.3471 48.75 42.1501 48.8281 41.9353 48.8281ZM23.1364 49.25C23.3871 49.25 23.593 49.1797 23.7541 49.0391C23.9153 48.8984 23.9958 48.7344 23.9958 48.5469C23.9958 48.3281 23.9153 48.1406 23.7541 47.9844C23.593 47.8281 23.3871 47.75 23.1364 47.75C22.8858 47.75 22.6799 47.8281 22.5188 47.9844C22.3576 48.1406 22.2771 48.3281 22.2771 48.5469C22.2771 48.7344 22.3576 48.8984 22.5188 49.0391C22.6799 49.1797 22.8858 49.25 23.1364 49.25ZM24.157 31.25V31.2031L24.6941 21.9219H21.4177L19.4841 31.2969C19.4841 31.5781 19.5468 31.8516 19.6721 32.1172C19.7974 32.3828 19.9496 32.6094 20.1286 32.7969C20.3435 32.9844 20.5941 33.1328 20.8806 33.2422C21.167 33.3516 21.4714 33.4063 21.7937 33.4063C22.1159 33.4063 22.4203 33.3516 22.7068 33.2422C22.9932 33.1328 23.226 32.9844 23.405 32.7969C23.6556 32.6094 23.8347 32.375 23.9421 32.0938C24.0495 31.8125 24.1032 31.5313 24.1032 31.25H24.157ZM26.4128 21.9219L25.8757 31.25C25.8757 31.5313 25.9384 31.8125 26.0637 32.0938C26.189 32.375 26.3591 32.6094 26.5739 32.7969C26.753 32.9844 26.9857 33.1328 27.2722 33.2422C27.5586 33.3516 27.863 33.4063 28.1853 33.4063C28.5075 33.4063 28.8119 33.3516 29.0984 33.2422C29.3848 33.1328 29.6355 32.9844 29.8503 32.7969C30.0652 32.6094 30.2263 32.375 30.3337 32.0938C30.4411 31.8125 30.4948 31.5313 30.4948 31.25H30.5486L30.2263 26.5625C30.2263 26.3438 30.3069 26.1563 30.468 26C30.6291 25.8438 30.8171 25.7656 31.032 25.7656C31.2826 25.7656 31.4974 25.8359 31.6765 25.9766C31.8555 26.1172 31.945 26.2813 31.945 26.4688L32.2136 31.2031V31.25H32.2673C32.2673 31.5313 32.33 31.8125 32.4553 32.0938C32.5806 32.375 32.7507 32.6094 32.9655 32.7969C33.1446 32.9844 33.3773 33.1328 33.6638 33.2422C33.9502 33.3516 34.2546 33.4063 34.5769 33.4063C34.8275 33.4063 35.0334 33.4844 35.1945 33.6406C35.3557 33.7969 35.4362 33.9688 35.4362 34.1563C35.4362 34.375 35.3557 34.5547 35.1945 34.6953C35.0334 34.8359 34.8275 34.9062 34.5769 34.9062C34.004 34.9062 33.4758 34.8125 32.9924 34.625C32.509 34.4375 32.0704 34.1719 31.6765 33.8281C31.6407 33.7656 31.5959 33.7109 31.5422 33.6641C31.4885 33.6172 31.4437 33.5625 31.4079 33.5C31.3363 33.5625 31.2737 33.6172 31.2199 33.6641C31.1662 33.7109 31.1215 33.7656 31.0857 33.8281C30.6918 34.1719 30.2531 34.4375 29.7697 34.625C29.2863 34.8125 28.7582 34.9062 28.1853 34.9062C27.6124 34.9062 27.0842 34.8125 26.6008 34.625C26.1174 34.4375 25.6788 34.1719 25.2849 33.8281C25.2491 33.7656 25.2043 33.7109 25.1506 33.6641C25.0969 33.6172 25.0521 33.5625 25.0163 33.5C24.9447 33.5625 24.882 33.6172 24.8283 33.6641C24.7746 33.7109 24.7299 33.7656 24.6941 33.8281C24.3002 34.1719 23.8615 34.4375 23.3781 34.625C22.8947 34.8125 22.3666 34.9062 21.7937 34.9062C21.2208 34.9062 20.6926 34.8125 20.2092 34.625C19.7258 34.4375 19.2872 34.1719 18.8933 33.8281C18.8575 33.7656 18.8127 33.7109 18.759 33.6641C18.7053 33.6172 18.6426 33.5625 18.571 33.5C18.5352 33.5625 18.4904 33.6172 18.4367 33.6641C18.383 33.7109 18.3383 33.7656 18.3025 33.8281C17.9086 34.1719 17.4699 34.4375 16.9865 34.625C16.5031 34.8125 15.975 34.9062 15.4021 34.9062C14.8292 34.9062 14.301 34.8125 13.8176 34.625C13.3342 34.4375 12.8956 34.1719 12.5017 33.8281C12.4659 33.7656 12.4211 33.7109 12.3674 33.6641C12.3137 33.6172 12.251 33.5625 12.1794 33.5C12.1436 33.5625 12.0988 33.6172 12.0451 33.6641C11.9914 33.7109 11.9467 33.7656 11.9109 33.8281C11.517 34.1719 11.0783 34.4375 10.5949 34.625C10.1115 34.8125 9.58338 34.9062 9.01047 34.9062C8.54497 34.9062 8.09738 34.8359 7.66769 34.6953C7.23801 34.5547 6.84413 34.3594 6.48605 34.1094C6.12798 33.8594 5.82362 33.5625 5.57297 33.2188C5.32232 32.875 5.16118 32.5 5.08957 32.0938C5.05376 31.9688 5.02691 31.8359 5.009 31.6953C4.9911 31.5547 4.98215 31.4219 4.98215 31.2969C5.01795 31.1719 5.05376 31.0469 5.08957 30.9219C5.12538 30.7969 5.16118 30.6719 5.19699 30.5469L8.74191 22.9531C8.95676 22.5781 9.20741 22.2344 9.49387 21.9219C9.78032 21.6094 10.1026 21.3438 10.4607 21.125C10.8187 20.875 11.2216 20.6953 11.6692 20.5859C12.1168 20.4766 12.5733 20.4219 13.0388 20.4219H28.7224C28.973 20.4219 29.1789 20.4922 29.3401 20.6328C29.5012 20.7734 29.5818 20.9531 29.5818 21.1719C29.5818 21.3594 29.5012 21.5312 29.3401 21.6875C29.1789 21.8438 28.973 21.9219 28.7224 21.9219H26.4128ZM19.6989 21.9219H16.2077L13.0925 31.2969C13.0925 31.6094 13.1552 31.8906 13.2805 32.1406C13.4058 32.3906 13.558 32.6094 13.737 32.7969C13.9519 32.9844 14.2025 33.1328 14.489 33.2422C14.7754 33.3516 15.0798 33.4063 15.4021 33.4063C15.7243 33.4063 16.0287 33.3516 16.3152 33.2422C16.6016 33.1328 16.8344 32.9844 17.0134 32.7969C17.264 32.6094 17.4431 32.375 17.5505 32.0938C17.6579 31.8125 17.7116 31.5313 17.7116 31.25H17.7654C17.7654 31.2188 17.7654 31.1875 17.7654 31.1562C17.7654 31.125 17.7654 31.1094 17.7654 31.1094L19.6989 21.9219ZM14.4353 21.9219H13.0388C12.7523 21.9219 12.4659 21.9531 12.1794 22.0156C11.893 22.0781 11.6423 22.1875 11.4275 22.3438C11.2126 22.4688 11.0067 22.6328 10.8098 22.8359C10.6128 23.0391 10.4607 23.2812 10.3532 23.5625L6.80832 31.1094C6.77251 31.1719 6.74566 31.2266 6.72775 31.2734C6.70985 31.3203 6.7009 31.375 6.7009 31.4375C6.7009 31.4688 6.7009 31.5156 6.7009 31.5781C6.7009 31.6406 6.7188 31.7031 6.75461 31.7656C6.79042 32.0156 6.87993 32.2422 7.02316 32.4453C7.16639 32.6484 7.34543 32.8281 7.56027 32.9844C7.77512 33.1094 7.99891 33.2109 8.23166 33.2891C8.46441 33.3672 8.72401 33.4063 9.01047 33.4063C9.33273 33.4063 9.63709 33.3516 9.92355 33.2422C10.21 33.1328 10.4428 32.9844 10.6218 32.7969C10.8724 32.6094 11.0515 32.375 11.1589 32.0938C11.2663 31.8125 11.32 31.5313 11.32 31.25H11.3737C11.3737 31.1875 11.3737 31.1406 11.3737 31.1094C11.3737 31.0781 11.3737 31.0469 11.3737 31.0156L14.4353 21.9219ZM31.032 51.3594C30.7813 51.3594 30.5754 51.2813 30.4143 51.125C30.2531 50.9688 30.1726 50.7969 30.1726 50.6094C30.1726 50.3906 30.2531 50.2109 30.4143 50.0703C30.5754 49.9297 30.7813 49.8594 31.032 49.8594H43.2243C43.4392 49.8594 43.6272 49.9297 43.7883 50.0703C43.9494 50.2109 44.03 50.3906 44.03 50.6094C44.03 50.7969 43.9494 50.9688 43.7883 51.125C43.6272 51.2813 43.4392 51.3594 43.2243 51.3594H31.032ZM58.2634 25.5313L47.1989 41.8438C47.0915 42.0313 46.9214 42.1484 46.6887 42.1953C46.4559 42.2422 46.2321 42.2188 46.0173 42.125C45.9457 42.0938 45.883 42.0547 45.8293 42.0078C45.7756 41.9609 45.7308 41.9063 45.695 41.8438L34.6843 25.5313C34.6843 25.5313 34.6753 25.5234 34.6574 25.5078C34.6395 25.4922 34.6306 25.4844 34.6306 25.4844C34.3799 25.0469 34.1472 24.6016 33.9323 24.1484C33.7175 23.6953 33.5385 23.2344 33.3952 22.7656C33.252 22.2656 33.1446 21.7734 33.073 21.2891C33.0014 20.8047 32.9655 20.2969 32.9655 19.7656C32.9655 18.1406 33.3236 16.6172 34.0398 15.1953C34.7559 13.7734 35.7227 12.5312 36.9402 11.4688C38.1576 10.4062 39.5809 9.5625 41.2102 8.9375C42.8394 8.3125 44.6029 8 46.5007 8C48.3627 8 50.1083 8.3125 51.7375 8.9375C53.3668 9.5625 54.7901 10.4062 56.0075 11.4688C57.225 12.5312 58.1918 13.7734 58.9079 15.1953C59.6241 16.6172 59.9821 18.1406 59.9821 19.7656C59.9821 20.2969 59.9463 20.8047 59.8747 21.2891C59.8031 21.7734 59.6957 22.2656 59.5525 22.7656C59.4092 23.2344 59.2302 23.7031 59.0154 24.1719C58.8005 24.6406 58.5499 25.0938 58.2634 25.5313ZM46.5007 12.6406C47.6107 12.6406 48.667 12.8281 49.6696 13.2031C50.6723 13.5781 51.5316 14.0938 52.2478 14.75C52.9997 15.375 53.5905 16.125 54.0202 17C54.4499 17.875 54.6648 18.7969 54.6648 19.7656C54.6648 20.7656 54.4499 21.7031 54.0202 22.5781C53.5905 23.4531 52.9997 24.2031 52.2478 24.8281C51.5316 25.4844 50.6723 26 49.6696 26.375C48.667 26.75 47.6107 26.9375 46.5007 26.9375C45.3549 26.9375 44.2807 26.75 43.278 26.375C42.2754 26 41.3982 25.4844 40.6462 24.8281C39.9301 24.2031 39.3571 23.4531 38.9275 22.5781C38.4978 21.7031 38.2829 20.7656 38.2829 19.7656C38.2829 18.7969 38.4978 17.875 38.9275 17C39.3571 16.125 39.9301 15.375 40.6462 14.75C41.3982 14.0938 42.2754 13.5781 43.278 13.2031C44.2807 12.8281 45.3549 12.6406 46.5007 12.6406ZM51.0661 15.7813C50.4574 15.2813 49.7681 14.8828 48.9983 14.5859C48.2284 14.2891 47.3959 14.1406 46.5007 14.1406C45.6055 14.1406 44.764 14.2891 43.9763 14.5859C43.1885 14.8828 42.4903 15.2813 41.8816 15.7813C41.3086 16.3125 40.8521 16.9141 40.5119 17.5859C40.1718 18.2578 40.0017 18.9844 40.0017 19.7656C40.0017 20.5469 40.1718 21.2813 40.5119 21.9688C40.8521 22.6563 41.3086 23.2656 41.8816 23.7969C42.4903 24.2969 43.1885 24.6953 43.9763 24.9922C44.764 25.2891 45.6055 25.4375 46.5007 25.4375C47.3959 25.4375 48.2284 25.2891 48.9983 24.9922C49.7681 24.6953 50.4574 24.2969 51.0661 23.7969C51.639 23.2656 52.0956 22.6563 52.4358 21.9688C52.7759 21.2813 52.946 20.5469 52.946 19.7656C52.946 18.9844 52.7759 18.2578 52.4358 17.5859C52.0956 16.9141 51.639 16.3125 51.0661 15.7813ZM46.5007 40.0156L56.8132 24.7813C57.028 24.4063 57.225 24.0156 57.404 23.6094C57.5831 23.2031 57.7442 22.7969 57.8874 22.3906C57.9948 21.9531 58.0844 21.5234 58.156 21.1016C58.2276 20.6797 58.2634 20.2344 58.2634 19.7656C58.2634 18.3594 57.9501 17.0313 57.3235 15.7813C56.6968 14.5313 55.8643 13.4375 54.8259 12.5C53.7517 11.5938 52.4984 10.8672 51.0661 10.3203C49.6338 9.77344 48.112 9.5 46.5007 9.5C44.8536 9.5 43.3139 9.77344 41.8816 10.3203C40.4493 10.8672 39.196 11.5938 38.1218 12.5C37.0476 13.4375 36.2061 14.5313 35.5974 15.7813C34.9887 17.0313 34.6843 18.3594 34.6843 19.7656C34.6843 20.2344 34.7112 20.6797 34.7649 21.1016C34.8186 21.5234 34.917 21.9531 35.0603 22.3906C35.1677 22.7969 35.3199 23.1953 35.5168 23.5859C35.7138 23.9766 35.9196 24.3594 36.1345 24.7344V24.7813L46.5007 40.0156ZM46.5007 16.3438C47.002 16.3438 47.4944 16.4375 47.9778 16.625C48.4612 16.8125 48.8819 17.0625 49.24 17.375C49.598 17.6875 49.8845 18.0469 50.0993 18.4531C50.3142 18.8594 50.4216 19.2969 50.4216 19.7656C50.4216 20.2656 50.3142 20.7188 50.0993 21.125C49.8845 21.5312 49.598 21.8906 49.24 22.2031C48.8819 22.5156 48.4701 22.7656 48.0046 22.9531C47.5391 23.1406 47.0378 23.2344 46.5007 23.2344C45.9278 23.2344 45.4086 23.1406 44.9431 22.9531C44.4776 22.7656 44.0658 22.5156 43.7077 22.2031C43.6719 22.2031 43.654 22.1953 43.654 22.1797C43.654 22.1641 43.654 22.1563 43.654 22.1563C43.2959 21.8438 43.0184 21.4844 42.8215 21.0781C42.6246 20.6719 42.5261 20.2344 42.5261 19.7656C42.5261 19.2969 42.6335 18.8594 42.8484 18.4531C43.0632 18.0469 43.3497 17.6875 43.7077 17.375C43.7077 17.375 43.7077 17.3672 43.7077 17.3516C43.7077 17.3359 43.7256 17.3281 43.7614 17.3281C44.1195 17.0156 44.5313 16.7734 44.9968 16.6016C45.4623 16.4297 45.9636 16.3438 46.5007 16.3438ZM48.0583 18.4062C47.8435 18.25 47.6018 18.1172 47.3332 18.0078C47.0647 17.8984 46.7872 17.8438 46.5007 17.8438C46.1784 17.8438 45.892 17.8906 45.6413 17.9844C45.3907 18.0781 45.1579 18.2188 44.9431 18.4062C44.9431 18.4062 44.9341 18.4062 44.9162 18.4062C44.8983 18.4062 44.8894 18.4062 44.8894 18.4062C44.7103 18.5938 44.5582 18.8047 44.4328 19.0391C44.3075 19.2734 44.2448 19.5156 44.2448 19.7656C44.2448 20.0469 44.2986 20.2969 44.406 20.5156C44.5134 20.7344 44.6745 20.9375 44.8894 21.125C44.8894 21.125 44.8894 21.1328 44.8894 21.1484C44.8894 21.1641 44.8894 21.1719 44.8894 21.1719C45.1042 21.3281 45.3459 21.4609 45.6145 21.5703C45.883 21.6797 46.1784 21.7344 46.5007 21.7344C46.7872 21.7344 47.0647 21.6797 47.3332 21.5703C47.6018 21.4609 47.8435 21.3281 48.0583 21.1719C48.2374 20.9844 48.3895 20.7734 48.5149 20.5391C48.6402 20.3047 48.7029 20.0469 48.7029 19.7656C48.7029 19.5156 48.6402 19.2734 48.5149 19.0391C48.3895 18.8047 48.2374 18.5938 48.0583 18.4062Z" fill="#F29721"/>
</g>
<defs>
<clipPath id="clip0_1283_10685">
<rect width="55" height="48" fill="white" transform="matrix(1 0 0 -1 5 56)"/>
</clipPath>
</defs>
</svg>
