<svg width="65" height="64" viewBox="0 0 65 64" fill="none" xmlns="http://www.w3.org/2000/svg">
<path fill-rule="evenodd" clip-rule="evenodd" d="M12.6667 41.2C9.44501 41.2 6.83333 43.7744 6.83333 46.95C6.83333 50.1256 9.44501 52.7 12.6667 52.7C15.8883 52.7 18.5 50.1256 18.5 46.95C18.5 43.7744 15.8883 41.2 12.6667 41.2ZM4.5 46.95C4.5 42.5041 8.15635 38.9 12.6667 38.9C17.177 38.9 20.8333 42.5041 20.8333 46.95C20.8333 51.3959 17.177 55 12.6667 55C8.15635 55 4.5 51.3959 4.5 46.95Z" fill="#F29721"/>
<path fill-rule="evenodd" clip-rule="evenodd" d="M47.6667 32C41.8677 32 37.1667 36.6339 37.1667 42.35C37.1667 48.0662 41.8677 52.7 47.6667 52.7C53.4656 52.7 58.1667 48.0662 58.1667 42.35C58.1667 40.9189 57.8726 39.5584 57.3419 38.3216C57.2092 38.0122 57.0617 37.7105 56.9001 37.4175C56.5925 36.8595 56.802 36.1612 57.3681 35.858C57.9343 35.5547 58.6426 35.7612 58.9503 36.3193C59.1481 36.6781 59.3286 37.0472 59.491 37.4257C60.141 38.9407 60.5 40.6055 60.5 42.35C60.5 49.3364 54.7543 55 47.6667 55C40.579 55 34.8333 49.3364 34.8333 42.35C34.8333 35.3636 40.579 29.7 47.6667 29.7C49.4365 29.7 51.1254 30.0539 52.6623 30.6946C53.0458 30.8546 53.4205 31.0324 53.7847 31.2275C54.3508 31.5307 54.5604 32.2289 54.2528 32.7869C53.9452 33.345 53.2369 33.5516 52.6707 33.2484C52.3738 33.0894 52.0677 32.9441 51.7534 32.8129M47.6667 32C49.1184 32 50.4988 32.29 51.7534 32.8129L47.6667 32Z" fill="#F29721"/>
<path fill-rule="evenodd" clip-rule="evenodd" d="M47.6667 38.9C45.7337 38.9 44.1667 40.4446 44.1667 42.35C44.1667 44.2554 45.7337 45.8 47.6667 45.8C49.5997 45.8 51.1667 44.2554 51.1667 42.35C51.1667 40.4446 49.5997 38.9 47.6667 38.9ZM41.8333 42.35C41.8333 39.1744 44.445 36.6 47.6667 36.6C50.8883 36.6 53.5 39.1744 53.5 42.35C53.5 45.5256 50.8883 48.1 47.6667 48.1C44.445 48.1 41.8333 45.5256 41.8333 42.35Z" fill="#F29721"/>
<path fill-rule="evenodd" clip-rule="evenodd" d="M30.1667 10.15C30.1667 9.51487 30.689 9 31.3333 9H54.6667C55.311 9 55.8333 9.51487 55.8333 10.15V28.55C55.8333 29.1851 55.311 29.7 54.6667 29.7C54.0223 29.7 53.5 29.1851 53.5 28.55V11.3H32.5V26.25C32.5 26.8851 31.9777 27.4 31.3333 27.4H11.5V36.45C11.5 37.0851 10.9777 37.6 10.3333 37.6C9.689 37.6 9.16667 37.0851 9.16667 36.45V26.25C9.16667 25.6149 9.689 25.1 10.3333 25.1H30.1667V10.15Z" fill="#F29721"/>
<path fill-rule="evenodd" clip-rule="evenodd" d="M21.5 42.35C21.5 41.7149 22.0223 41.2 22.6667 41.2H32.3333C32.9777 41.2 33.5 41.7149 33.5 42.35C33.5 42.9851 32.9777 43.5 32.3333 43.5H22.6667C22.0223 43.5 21.5 42.9851 21.5 42.35Z" fill="#F29721"/>
<path fill-rule="evenodd" clip-rule="evenodd" d="M18.5 14.75C19.1443 14.75 19.6667 15.2649 19.6667 15.9V32C19.6667 32.6351 19.1443 33.15 18.5 33.15C17.8557 33.15 17.3333 32.6351 17.3333 32V15.9C17.3333 15.2649 17.8557 14.75 18.5 14.75Z" fill="#F29721"/>
<path fill-rule="evenodd" clip-rule="evenodd" d="M34.8333 14.75C34.8333 14.1149 35.3557 13.6 36 13.6H45.3333C45.9777 13.6 46.5 14.1149 46.5 14.75V26.25C46.5 26.8851 45.9777 27.4 45.3333 27.4H36C35.3557 27.4 34.8333 26.8851 34.8333 26.25V14.75ZM37.1667 15.9V25.1H44.1667V15.9H37.1667Z" fill="#F29721"/>
<path d="M57.0132 34.2184C57.0132 34.8536 56.4908 35.3684 55.8465 35.3684C55.2022 35.3684 54.6798 34.8536 54.6798 34.2184C54.6798 33.5833 55.2022 33.0684 55.8465 33.0684C56.4908 33.0684 57.0132 33.5833 57.0132 34.2184Z" fill="#F29721"/>
</svg>
