<svg width="80" height="80" viewBox="0 0 80 80" fill="none" xmlns="http://www.w3.org/2000/svg">
<mask id="mask0_1446_2543" style="mask-type:luminance" maskUnits="userSpaceOnUse" x="0" y="0" width="81" height="81">
<path d="M0.0244751 0.0224553H80.0245V80.0225H0.0244751V0.0224553Z" fill="white"/>
</mask>
<g mask="url(#mask0_1446_2543)">
<path d="M24.7633 64.1533C24.7041 64.1651 24.6394 64.1771 24.5683 64.1887C24.5092 64.2005 24.4324 64.2094 24.3379 64.2152C24.2432 64.2213 24.1488 64.2241 24.0544 64.2241C23.6052 64.2241 23.2684 64.1119 23.044 63.8873C22.9139 63.7573 22.8253 63.5921 22.7783 63.3911C22.7308 63.1902 22.7072 62.9894 22.7072 62.7883V58.8356H20.8993V63.0011C20.8993 63.4385 20.9614 63.8519 21.0854 64.2419C21.2095 64.6319 21.4014 64.9508 21.6616 65.1989C21.9212 65.4471 22.2465 65.6306 22.6364 65.7485C23.0264 65.8668 23.4279 65.9258 23.8417 65.9258C24.078 65.9258 24.2671 65.9169 24.4089 65.8991C24.5507 65.8815 24.6687 65.8668 24.7633 65.8549V71.4561H26.5713V58.8356H24.7633V64.1533Z" fill="white"/>
<path d="M31.7476 67.0425L32.6339 62.4694H32.6693L33.5556 67.0425H31.7476ZM31.9072 58.8358L29.0887 71.4561H30.8968L31.4285 68.744H33.8923L34.424 71.4561H36.2321L33.4138 58.8358H31.9072Z" fill="white"/>
<path d="M43.1557 56.1605C43.0905 56.2609 42.9961 56.3464 42.8719 56.4173C42.748 56.4883 42.5736 56.5238 42.3491 56.5238C42.1244 56.5238 41.9503 56.4883 41.8263 56.4173C41.7021 56.3464 41.6074 56.2609 41.5426 56.1605C41.4775 56.0601 41.4391 55.9596 41.4275 55.859C41.4155 55.7587 41.4037 55.6729 41.3919 55.6021H39.8854C39.9678 56.311 40.2012 56.8312 40.5853 57.1619C40.9693 57.4927 41.5573 57.6582 42.3491 57.6582C43.1407 57.6582 43.7286 57.4927 44.1128 57.1619C44.4968 56.8312 44.7302 56.311 44.8129 55.6021H43.3063C43.2944 55.6729 43.2824 55.7587 43.2708 55.859C43.2588 55.9596 43.2205 56.0601 43.1557 56.1605Z" fill="white"/>
<path d="M40.7342 67.0425H40.6988V58.8358H38.8909V71.4561H40.6988L43.074 63.267H43.1094V71.4561H44.9173V58.8358H43.1094L40.7342 67.0425Z" fill="white"/>
<path d="M52.7339 59.6333C52.6038 59.8106 52.4974 59.9998 52.4149 60.2006C52.332 60.4015 52.267 60.5966 52.2198 60.7855C52.1724 60.9746 52.1403 61.1429 52.1225 61.2906C52.1047 61.4386 52.0899 61.5359 52.0782 61.5831L51.9008 63.0897C51.8771 63.2554 51.8477 63.4059 51.8123 63.5417C51.7769 63.6777 51.7176 63.7988 51.6351 63.9051C51.5522 64.0115 51.4459 64.0941 51.3159 64.1533C51.1858 64.2125 51.0145 64.2419 50.802 64.2419H50.1993V58.8358H48.3914V71.4561H50.1993V65.8372H51.2095L52.8049 71.4561H54.6484L52.7693 65.0396C52.8639 64.9688 52.9612 64.8711 53.062 64.7469C53.1622 64.6229 53.2481 64.4784 53.319 64.3127C53.366 64.2183 53.4014 64.109 53.4252 63.9849C53.4488 63.8607 53.4723 63.7398 53.4961 63.6216C53.5196 63.4916 53.5374 63.3498 53.5493 63.1961L53.7089 61.7249C53.7324 61.5359 53.7621 61.3646 53.7975 61.2108C53.8329 61.0574 53.8977 60.9273 53.9923 60.8209C54.087 60.7145 54.1874 60.641 54.2939 60.5994C54.4002 60.5582 54.5359 60.5373 54.7014 60.5373V58.8358C54.2643 58.8358 53.8831 58.8977 53.5583 59.0218C53.2329 59.1459 52.9583 59.3497 52.7339 59.6333Z" fill="white"/>
<path d="M59.2041 67.0425L60.0903 62.4694H60.1258L61.0122 67.0425H59.2041ZM59.3637 58.8358L56.5453 71.4561H58.3533L58.8851 68.744H61.3489L61.8807 71.4561H63.6886L60.8703 58.8358H59.3637Z" fill="white"/>
<path d="M37.4718 20.9373C38.0462 21.1905 38.5477 21.3232 39.0244 21.3232C39.9292 21.3232 40.745 20.845 41.8013 19.8019C43.594 18.0328 45.5254 16.3786 47.7059 14.7448L47.9683 14.5479L47.6579 14.4613C46.8495 14.2357 46.0303 14.0571 45.223 13.9306L45.1594 13.9206L45.109 13.9634C44.0859 14.8334 43.1549 15.6842 42.2626 16.5644C40.6369 18.1705 38.5358 19.6188 35.2761 18.1817C33.8565 17.5556 32.3844 17.0675 30.9007 16.7311L30.8455 16.7186L30.7965 16.7481C29.9429 17.264 29.108 17.8547 28.3151 18.5037L27.988 18.7715L28.3997 18.7883C31.471 18.9143 34.5233 19.6374 37.4718 20.9373Z" fill="white"/>
<path d="M36.2499 15.735C36.8242 15.9882 37.3256 16.1211 37.8022 16.1211C38.7069 16.1211 39.5225 15.6426 40.579 14.5994C40.8931 14.2896 41.2287 13.9687 41.6052 13.6183L41.9118 13.333L41.5051 13.3399C39.0553 13.3821 36.6527 13.8375 34.3641 14.6933L33.9503 14.848L34.3666 14.994C35.0346 15.2281 35.6506 15.4706 36.2499 15.735Z" fill="white"/>
<path d="M38.5114 25.8606C39.086 26.114 39.5873 26.2472 40.0643 26.2471C40.9687 26.2471 41.7845 25.7686 42.8407 24.7252C45.6527 21.9497 48.8754 19.3944 52.6925 16.9137L52.9128 16.7703L52.6861 16.6385C52.0551 16.2718 51.3794 15.9262 50.678 15.6112L50.6046 15.5784L50.5381 15.6254C47.8779 17.512 45.571 19.4296 43.4855 21.4875C41.8581 23.0935 39.7551 24.5415 36.498 23.1051C32.9042 21.5203 29.3627 20.8942 25.6714 21.1909L25.6125 21.1956L25.5729 21.2423C24.8658 22.071 24.2164 22.9648 23.6426 23.8991L23.4531 24.2075L23.7931 24.1424C28.8007 23.1848 33.7525 23.7628 38.5114 25.8606Z" fill="white"/>
<path d="M39.5398 30.7283C40.1139 30.9813 40.6152 31.1143 41.0919 31.1143C41.9963 31.1143 42.8121 30.636 43.869 29.5929C47.3788 26.1292 51.4533 23.0609 56.6915 19.9366L56.8732 19.828L56.7183 19.6797C56.2096 19.1933 55.6592 18.7188 55.0825 18.2688L55.0035 18.2071L54.9194 18.2604C50.8255 20.8448 47.4254 23.4927 44.5246 26.3553C42.8986 27.9611 40.797 29.4089 37.5376 27.9727C32.4707 25.7389 27.4479 25.3837 22.1817 26.887L22.1123 26.9067L22.0837 26.9772C21.726 27.8581 21.4254 28.7772 21.1907 29.7088L21.1207 29.9864L21.3778 29.9018C27.5692 27.867 33.6799 28.1451 39.5398 30.7283Z" fill="white"/>
<path d="M29.3017 51.7994L29.5087 51.9492L29.5331 51.6835C29.6682 50.215 29.915 49.0447 30.0983 48.3215L30.1529 48.1065L29.9447 48.1216C28.7075 48.2113 27.1352 48.3828 26.0343 48.5109L25.7337 48.5458L25.9431 48.7787C26.9497 49.8979 28.0795 50.9143 29.3017 51.7994Z" fill="white"/>
<path d="M36.9738 43.5539L37.1393 43.3307L36.8746 43.2976C35.2041 43.0888 32.9796 43.0995 30.2627 43.33C28.0282 43.5195 25.4773 43.8638 23.0802 44.2997L22.8718 44.3376L22.9758 44.5342C23.306 45.158 23.6656 45.7637 24.0447 46.3345L24.0958 46.4113L24.1833 46.4002C26.7905 46.0732 29.8736 45.8104 31.3484 45.7456C32.1166 45.7119 33.1142 45.8392 33.5323 45.8994L32.8763 47.3797C32.8669 47.4019 31.9142 49.6303 31.8143 53.3855C31.7919 54.2144 31.8138 55.0652 31.8791 55.9145L31.8939 56.1074L32.0683 56.0541C32.7301 55.8516 33.482 55.6509 34.3666 55.4401C34.8575 55.3231 35.4048 55.2013 36.0398 55.0681C40.1409 54.2064 46.0145 53.3227 53.498 52.4412L53.5308 52.4373L53.559 52.4191C55.2176 51.3418 56.7161 50.0437 58.0129 48.5605L58.5648 47.9293L57.8389 48.3098C56.6228 48.947 55.3083 49.3795 53.8205 49.6321C37.9779 52.318 35.6607 53.0333 35.5699 53.0625L33.9235 53.6731L33.9873 51.9437C34.0707 48.2244 35.6573 45.3284 36.9738 43.5539Z" fill="white"/>
<path d="M63.057 32.3353L63.0249 32.0682L62.8216 32.2273C61.4184 33.3253 59.3869 34.9265 57.6782 36.3194L57.3661 36.574L63.0897 37.0117L63.1049 36.8592C63.1734 36.1694 63.2079 35.4769 63.2079 34.8006C63.2079 34.0037 63.1571 33.1742 63.057 32.3353Z" fill="white"/>
<path d="M66.5629 22.8221L66.5567 22.8272C65.3373 23.8299 64.0764 24.8667 62.8481 25.9186L61.712 26.8926C56.9451 30.9783 52.3046 35.0238 47.9366 39.5882L47.1482 40.4115L59.1581 41.2817L59.1233 41.3212C59.005 41.4548 58.8872 41.5898 58.7699 41.7247C58.2336 42.3402 57.727 42.9216 57.1521 43.3834C54.9623 45.1445 52.4173 45.5852 49.9982 45.8859C49.368 45.9643 48.7372 46.0411 48.1066 46.1177L48.0524 46.1244C45.8578 46.3916 43.5884 46.6679 41.3755 47.006C40.6946 47.1102 40.0438 47.3606 39.4144 47.6028L39.3248 47.6372L39.3553 47.5692C39.9728 46.1975 40.9343 45.2235 41.9546 44.1903C42.7758 43.3577 43.6249 42.497 44.2828 41.4086L44.5925 40.8958L44.0528 40.6439C41.5345 39.4698 38.806 38.7282 36.5664 38.6089C35.8397 38.5707 35.1041 38.5513 34.38 38.5513C30.4097 38.5513 26.1284 38.9146 21.3392 40.0823C20.2912 40.338 16.0343 41.3863 15.6752 41.4915C12.5254 42.4147 6.78121 42.4844 6.78121 42.4844C7.27679 42.2566 7.66118 42.0784 8.28037 41.7918C8.86838 41.5198 17.2392 37.0848 18.5479 36.4211C19.1404 36.1201 19.7641 35.8307 20.5108 35.5105C27.1752 32.6499 33.4776 32.6097 39.7788 35.3876C42.1046 36.4129 43.9128 35.9831 46.0193 33.9036C50.876 29.1104 56.3191 25.7475 59.9911 23.635H59.991C61.1955 22.9423 62.4723 22.2337 63.8938 21.469C65.3339 20.6944 71.6352 17.4077 73.7023 16.353C72.3801 17.7077 68.4032 21.3085 66.5629 22.8221ZM20.0795 25.3359C21.2694 22.5224 22.9733 19.9955 25.1436 17.8252C27.3137 15.6549 29.8407 13.9512 32.6542 12.7612C35.5662 11.5294 38.6605 10.9048 41.8506 10.9048C45.0408 10.9048 48.135 11.5294 51.0471 12.7612C53.8604 13.9512 56.3874 15.6549 58.5577 17.8252C59.3354 18.603 60.0342 19.4397 60.6899 20.3058C59.9762 20.7054 59.2538 21.1192 58.5145 21.5644C53.1599 24.7106 49.0413 27.7795 45.553 31.2222C43.926 32.8276 41.8233 34.2751 38.5661 32.8396C32.6942 30.2506 26.8331 30.1805 20.6478 32.6255L20.6434 32.6272C19.8172 32.9862 19.0219 33.3472 18.2434 33.7083C18.3419 30.8096 18.9542 27.9962 20.0795 25.3359ZM78.6215 12.9913C76.8638 13.3548 70.2554 15.2986 62.8317 19.1518C62.0504 18.0884 61.204 17.069 60.2589 16.124C57.8685 13.7334 55.0845 11.8565 51.9843 10.5453C48.774 9.18738 45.3645 8.49889 41.8506 8.49889C38.3366 8.49889 34.9271 9.18738 31.717 10.5453C28.6166 11.8565 25.8328 13.7334 23.4422 16.124C21.0516 18.5144 19.1749 21.2984 17.8635 24.3986C16.5057 27.6089 15.8173 31.0183 15.8173 34.5322C15.8173 34.6448 15.8276 34.7556 15.829 34.8678C7.29753 39.0921 3.12361 42.5215 2.04608 43.3896L1.80408 43.5848L2.0966 43.6694C3.68932 44.1314 5.5232 44.3622 7.59274 44.362C10.6698 44.3619 13.2852 44.4092 17.3751 43.3913C17.5298 43.8186 17.6857 44.2453 17.8635 44.6661C19.1749 47.7663 21.0516 50.5502 23.4422 52.9406C25.2071 54.7055 27.1866 56.1901 29.3494 57.374V54.5876C27.8326 53.6409 26.4257 52.5218 25.1436 51.2394C22.9733 49.0691 21.2694 46.5422 20.0795 43.7287C19.9455 43.4118 19.8302 43.0895 19.7108 42.7683C20.123 42.6518 20.5308 42.54 20.9522 42.4143L20.9754 42.4072C21.5155 42.2463 21.7864 42.1655 21.8969 42.1625L21.9193 42.16C24.0035 41.7611 29.3565 40.8333 34.0347 40.8333C36.4655 40.8333 38.3771 41.0849 39.7164 41.5811L41.4978 42.2407L40.1033 43.512C40.0741 43.5391 39.381 44.1914 38.5918 45.3511C37.2859 47.2699 36.7553 49.0582 36.5403 50.2205L36.4971 50.4542L36.7157 50.4069C38.9018 49.9335 43.5737 49.0188 53.4153 47.3501C58.3127 46.5198 60.327 43.3275 61.9454 40.7628C62.1599 40.4233 62.3894 40.0622 62.6159 39.7224L62.6281 39.7045C62.6626 39.653 62.6971 39.6019 62.7319 39.5517L62.8918 39.3197L51.6416 38.4592L53.6466 36.6595C55.6799 34.8336 60.9658 30.7067 62.5373 29.4852L62.5425 29.481C63.2154 28.9085 63.8583 28.3466 64.4859 27.7908C65.1342 29.9673 65.4781 32.2225 65.4781 34.5322C65.4781 37.7225 64.8535 40.8167 63.6216 43.7287C62.4318 46.5422 60.7279 49.0691 58.5577 51.2394C56.7258 53.0711 54.6399 54.5707 52.342 55.7095C52.7308 55.7195 53.1194 55.7312 53.5081 55.7456C54.5829 55.7857 55.6569 55.8399 56.7307 55.8986C57.9844 55.0237 59.1632 54.0363 60.2589 52.9406C62.6495 50.5502 64.5263 47.7663 65.8376 44.6661C67.1954 41.4557 67.8839 38.0463 67.8839 34.5322C67.8839 31.5999 67.4038 28.7403 66.456 26.0085C72.9834 19.9822 77.6637 14.7167 78.7657 13.2464L79.0185 12.9092L78.6215 12.9913Z" fill="white"/>
<path d="M62.8273 53.6341H63.5009V57.2803H64.0832V53.6341H64.7567V53.066H62.8273V53.6341Z" fill="white"/>
<path d="M66.903 55.2974H66.8918L66.1439 53.066H65.5842V57.2803H66.1666V54.7173H66.1782L66.749 56.5286H67.0402L67.6166 54.7173H67.6282V57.2803H68.2104V53.066H67.6452L66.903 55.2974Z" fill="white"/>
</g>
</svg>
