<svg width="64" height="64" viewBox="0 0 64 64" fill="none" xmlns="http://www.w3.org/2000/svg">
<path fill-rule="evenodd" clip-rule="evenodd" d="M8.55279 24.1056C8.83431 23.9648 9.16569 23.9648 9.44721 24.1056L17.4472 28.1056C17.786 28.275 18 28.6212 18 29V45C18 45.5523 17.5523 46 17 46H1C0.447715 46 0 45.5523 0 45V29C0 28.6212 0.214002 28.275 0.552786 28.1056L8.55279 24.1056ZM2 29.618V44H16V29.618L9 26.118L2 29.618Z" fill="#F29721"/>
<path fill-rule="evenodd" clip-rule="evenodd" d="M30.5528 24.1056C30.8343 23.9648 31.1657 23.9648 31.4472 24.1056L39.4472 28.1056C39.786 28.275 40 28.6212 40 29V45C40 45.5523 39.5523 46 39 46H23C22.4477 46 22 45.5523 22 45V29C22 28.6212 22.214 28.275 22.5528 28.1056L30.5528 24.1056ZM24 29.618V44H38V29.618L31 26.118L24 29.618Z" fill="#F29721"/>
<path fill-rule="evenodd" clip-rule="evenodd" d="M52.5528 24.1056C52.8343 23.9648 53.1657 23.9648 53.4472 24.1056L61.4472 28.1056C61.786 28.275 62 28.6212 62 29V45C62 45.5523 61.5523 46 61 46H45C44.4477 46 44 45.5523 44 45V29C44 28.6212 44.214 28.275 44.5528 28.1056L52.5528 24.1056ZM46 29.618V44H60V29.618L53 26.118L46 29.618Z" fill="#F29721"/>
<path fill-rule="evenodd" clip-rule="evenodd" d="M7 20H45V22H7V20ZM52 21C52 20.4477 52.4477 20 53 20H55C55.5523 20 56 20.4477 56 21C56 21.5523 55.5523 22 55 22H53C52.4477 22 52 21.5523 52 21Z" fill="#F29721"/>
<path d="M50 21C50 21.5523 49.5523 22 49 22C48.4477 22 48 21.5523 48 21C48 20.4477 48.4477 20 49 20C49.5523 20 50 20.4477 50 21Z" fill="#F29721"/>
</svg>
