<svg width="64" height="64" viewBox="0 0 64 64" fill="none" xmlns="http://www.w3.org/2000/svg">
<path d="M31.0415 46C30.8599 46.0001 30.6818 45.9505 30.5265 45.8565C29.0079 44.9416 27.7808 43.6138 26.9882 42.028C26.1957 40.4422 25.8702 38.6637 26.05 36.9C26.2522 35.261 26.7862 33.6803 27.6195 32.2545C28.4054 30.9115 29.2819 29.6237 30.243 28.4C31.1489 27.2479 31.9767 26.0366 32.721 24.774C33.4218 23.586 33.8739 22.268 34.05 20.9C34.1859 19.5132 33.9301 18.1161 33.3115 16.8675C33.1927 16.6303 33.173 16.3557 33.2568 16.104C33.3405 15.8524 33.5208 15.6443 33.758 15.5255C33.9951 15.4067 34.2698 15.3871 34.5214 15.4708C34.7731 15.5545 34.9812 15.7348 35.1 15.972C35.8862 17.5599 36.2108 19.3367 36.037 21.1C35.8353 22.739 35.3016 24.3197 34.4685 25.7455C33.6815 27.0885 32.8039 28.3763 31.842 29.6C30.9356 30.7518 30.1078 31.9632 29.364 33.226C28.664 34.4145 28.2127 35.7329 28.0375 37.101C27.8961 38.4879 28.1521 39.8863 28.7755 41.1332C29.399 42.3801 30.3642 43.424 31.5585 44.143C31.7459 44.2557 31.8913 44.4268 31.9722 44.6301C32.0531 44.8333 32.0652 45.0575 32.0065 45.2682C31.9478 45.479 31.8217 45.6646 31.6474 45.7968C31.4731 45.929 31.2602 46.0004 31.0415 46Z" fill="#F29721"/>
<path d="M32.8805 42C32.2327 41.9999 31.5876 41.9159 30.9615 41.75C30.7906 41.7049 30.6348 41.6154 30.5098 41.4905C30.3848 41.3656 30.2952 41.2098 30.25 41.039C29.9133 39.8261 29.9045 38.5455 30.2244 37.328C30.5443 36.1106 31.1815 34.9998 32.071 34.109C32.9701 33.2168 34.087 32.5751 35.3106 32.2477C36.5343 31.9203 37.8224 31.9185 39.047 32.2425C39.2177 32.2877 39.3734 32.3773 39.4983 32.5021C39.6232 32.627 39.7128 32.7828 39.758 32.9535C40.0819 34.1781 40.08 35.4661 39.7526 36.6898C39.4252 37.9134 38.7836 39.0303 37.8915 39.9295C37.2345 40.5886 36.4533 41.111 35.5932 41.4664C34.7331 41.8218 33.8111 42.0031 32.8805 42ZM32.0615 39.937C32.8577 40.0658 33.6731 40.004 34.4407 39.7565C35.2084 39.5091 35.9064 39.0831 36.4775 38.5135C37.051 37.9347 37.4822 37.2305 37.7368 36.4565C37.9915 35.6824 38.0628 34.8598 37.945 34.0535C37.1387 33.9352 36.3159 34.0062 35.5418 34.2609C34.7677 34.5156 34.0635 34.947 33.485 35.521C32.9151 36.0923 32.4889 36.7906 32.2415 37.5587C31.994 38.3267 31.9323 39.1425 32.0615 39.939V39.937Z" fill="#F29721"/>
<path d="M29.1195 24C28.1888 24.0029 27.2667 23.8212 26.4067 23.4654C25.5467 23.1097 24.7657 22.587 24.109 21.9275C23.2168 21.0282 22.5753 19.9114 22.248 18.6877C21.9207 17.464 21.9189 16.1761 22.243 14.9515C22.2881 14.7808 22.3777 14.625 22.5026 14.5001C22.6275 14.3753 22.7832 14.2857 22.954 14.2405C24.1785 13.9164 25.4664 13.9181 26.6901 14.2455C27.9137 14.5729 29.0304 15.2147 29.9295 16.107C30.8191 16.9981 31.4563 18.1092 31.7761 19.3271C32.096 20.5449 32.0869 21.8258 31.75 23.039C31.7048 23.2097 31.6152 23.3655 31.4903 23.4904C31.3654 23.6152 31.2097 23.7048 31.039 23.75C30.4126 23.9157 29.7674 23.9997 29.1195 24ZM24.056 16.0555C23.9379 16.8618 24.009 17.6844 24.2636 18.4585C24.5182 19.2325 24.9493 19.9368 25.523 20.5155C26.0938 21.0852 26.7918 21.5113 27.5594 21.7586C28.327 22.006 29.1424 22.0677 29.9385 21.9385C30.0673 21.1424 30.0054 20.3271 29.7581 19.5596C29.5107 18.792 29.0849 18.0941 28.5155 17.523C27.9368 16.9494 27.2326 16.5183 26.4587 16.2636C25.6847 16.0089 24.8622 15.9377 24.056 16.0555Z" fill="#F29721"/>
<path d="M30.942 51.991C28.1924 52.0102 25.4485 51.7386 22.756 51.181C18.5415 50.254 16.2095 48.754 16.0125 46.8435C15.9125 45.849 16.367 44.4045 19.124 43.1675C20.2931 42.665 21.5099 42.2817 22.756 42.0235C23.0133 41.9709 23.2809 42.0216 23.5012 42.1646C23.7214 42.3077 23.8765 42.5317 23.933 42.7882C23.9895 43.0447 23.9428 43.3131 23.803 43.5354C23.6632 43.7578 23.4416 43.9162 23.186 43.9765C22.0735 44.2054 20.9868 44.5456 19.9425 44.992C18.454 45.66 17.967 46.2965 18 46.6385C18.0615 47.2345 19.4925 48.416 23.184 49.228C29.329 50.578 37.7955 50.1235 42.0565 48.212C43.545 47.5445 44.0315 46.9075 43.9965 46.566C43.935 45.9695 42.504 44.7885 38.813 43.9765C38.6827 43.9503 38.559 43.8985 38.449 43.8239C38.339 43.7494 38.245 43.6537 38.1724 43.5425C38.0998 43.4312 38.0501 43.3066 38.0263 43.1759C38.0024 43.0452 38.0048 42.9111 38.0333 42.7813C38.0618 42.6516 38.1159 42.5288 38.1924 42.4202C38.269 42.3116 38.3663 42.2193 38.4789 42.1488C38.5915 42.0782 38.717 42.0308 38.8481 42.0093C38.9792 41.9878 39.1132 41.9926 39.2425 42.0235C43.4575 42.95 45.7895 44.45 45.9865 46.361C46.0865 47.355 45.632 48.8 42.875 50.037C40.042 51.3085 35.5185 51.991 30.942 51.991Z" fill="#F29721"/>
<path d="M34 13C34 13.1978 33.9413 13.3911 33.8314 13.5556C33.7215 13.72 33.5654 13.8482 33.3826 13.9239C33.1999 13.9996 32.9988 14.0194 32.8049 13.9808C32.6109 13.9422 32.4327 13.847 32.2929 13.7071C32.153 13.5673 32.0578 13.3891 32.0192 13.1951C31.9806 13.0011 32.0004 12.8 32.0761 12.6173C32.1518 12.4346 32.2799 12.2784 32.4444 12.1685C32.6088 12.0586 32.8022 12 33 12C33.2652 12 33.5195 12.1054 33.7071 12.2929C33.8946 12.4804 34 12.7348 34 13Z" fill="#F29721"/>
</svg>
