<svg width="64" height="64" viewBox="0 0 64 64" fill="none" xmlns="http://www.w3.org/2000/svg">
<path d="M57.7812 27.9753L56.2578 21.4321C56.4531 21.3909 56.6191 21.2778 56.7559 21.0926C56.8926 20.9074 56.9609 20.6914 56.9609 20.4444V19.3951C56.9609 18.2428 56.5801 17.2654 55.8184 16.463C55.0566 15.6605 54.1289 15.2593 53.0352 15.2593H45.9453V13.037C45.9453 12.5021 45.7598 12.0288 45.3887 11.6173C45.0176 11.2058 44.5586 11 44.0117 11H7.97656C7.42969 11 6.96094 11.2058 6.57031 11.6173C6.17969 12.0288 5.98438 12.5021 5.98438 13.037V31C5.98438 31.2881 6.08203 31.5247 6.27734 31.7099C6.47266 31.8951 6.6875 31.9877 6.92188 31.9877C7.19531 31.9877 7.41992 31.8951 7.5957 31.7099C7.77148 31.5247 7.85938 31.2881 7.85938 31V13.037C7.85938 13.037 7.86914 13.0267 7.88867 13.0062C7.9082 12.9856 7.9375 12.9753 7.97656 12.9753H44.0117C44.0508 12.9753 44.0703 12.9856 44.0703 13.0062C44.0703 13.0267 44.0703 13.037 44.0703 13.037V31C44.0703 31.2881 44.168 31.5247 44.3633 31.7099C44.5586 31.8951 44.7734 31.9877 45.0078 31.9877C45.2812 31.9877 45.5059 31.8951 45.6816 31.7099C45.8574 31.5247 45.9453 31.2881 45.9453 31V29.8889H57.0781C57.7422 29.8889 58.3379 30.0947 58.8652 30.5062C59.3926 30.9177 59.7539 31.4527 59.9492 32.1111H57.0781C56.8047 32.1111 56.5801 32.214 56.4043 32.4198C56.2285 32.6255 56.1406 32.8519 56.1406 33.0988V35.1975C56.1406 36.0617 56.4238 36.8025 56.9902 37.4198C57.5566 38.037 58.25 38.3457 59.0703 38.3457H60.125V42.6667H57.6641C57.2734 41.4321 56.5605 40.4239 55.5254 39.642C54.4902 38.8601 53.3281 38.4691 52.0391 38.4691C50.75 38.4691 49.5879 38.8601 48.5527 39.642C47.5176 40.4239 46.8047 41.4321 46.4141 42.6667H45.9453V35.1975C45.9453 34.9506 45.8574 34.7243 45.6816 34.5185C45.5059 34.3128 45.2812 34.2099 45.0078 34.2099C44.7734 34.2099 44.5586 34.3128 44.3633 34.5185C44.168 34.7243 44.0703 34.9506 44.0703 35.1975V42.6667H24.6172C24.1875 41.4321 23.4648 40.4239 22.4492 39.642C21.4336 38.8601 20.2812 38.4691 18.9922 38.4691C17.6641 38.4691 16.4922 38.8601 15.4766 39.642C14.4609 40.4239 13.7578 41.4321 13.3672 42.6667H7.97656C7.9375 42.6667 7.9082 42.6667 7.88867 42.6667C7.86914 42.6667 7.85938 42.6461 7.85938 42.6049V40.4444H11.9609C12.2344 40.4444 12.459 40.3416 12.6348 40.1358C12.8105 39.93 12.8984 39.7037 12.8984 39.4568C12.8984 39.1687 12.8105 38.9321 12.6348 38.7469C12.459 38.5617 12.2344 38.4691 11.9609 38.4691H2.9375C2.66406 38.4691 2.43945 38.5617 2.26367 38.7469C2.08789 38.9321 2 39.1687 2 39.4568C2 39.7037 2.08789 39.93 2.26367 40.1358C2.43945 40.3416 2.66406 40.4444 2.9375 40.4444H5.98438V42.6049C5.98438 43.1811 6.17969 43.6646 6.57031 44.0556C6.96094 44.4465 7.42969 44.642 7.97656 44.642H13.0156C13.0156 44.6831 13.0156 44.7037 13.0156 44.7037C13.0156 46.4321 13.6016 47.9136 14.7734 49.1481C15.9453 50.3827 17.3516 51 18.9922 51C20.6328 51 22.0293 50.3827 23.1816 49.1481C24.334 47.9136 24.9102 46.4321 24.9102 44.7037C24.9102 44.7037 24.9102 44.6831 24.9102 44.642H46.1211C46.1211 44.6831 46.1113 44.7037 46.0918 44.7037C46.0723 44.7037 46.0625 44.7037 46.0625 44.7037C46.0625 46.4321 46.6484 47.9136 47.8203 49.1481C48.9922 50.3827 50.3984 51 52.0391 51C53.6797 51 55.0859 50.3827 56.2578 49.1481C57.4297 47.9136 58.0156 46.4321 58.0156 44.7037C58.0156 44.7037 58.0156 44.6831 58.0156 44.642H61.0625C61.3359 44.642 61.5605 44.5494 61.7363 44.3642C61.9121 44.179 62 43.9424 62 43.6543V33.0988C62 31.823 61.5996 30.6914 60.7988 29.7037C59.998 28.716 58.9922 28.1399 57.7812 27.9753ZM45.9453 17.2346H53.0352C53.6211 17.2346 54.1094 17.4403 54.5 17.8519C54.8906 18.2634 55.0859 18.7778 55.0859 19.3951V19.4568H45.9453V17.2346ZM45.9453 27.9136V21.4321H54.3242L55.8477 27.9136H45.9453ZM18.9922 49.0247C17.8594 49.0247 16.8926 48.6029 16.0918 47.7593C15.291 46.9156 14.8906 45.8971 14.8906 44.7037C14.8906 43.5514 15.291 42.5535 16.0918 41.7099C16.8926 40.8663 17.8594 40.4444 18.9922 40.4444C20.0859 40.4444 21.0332 40.8663 21.834 41.7099C22.6348 42.5535 23.0352 43.5514 23.0352 44.7037C23.0352 45.8971 22.6348 46.9156 21.834 47.7593C21.0332 48.6029 20.0859 49.0247 18.9922 49.0247ZM52.0391 49.0247C50.9062 49.0247 49.9492 48.6029 49.168 47.7593C48.3867 46.9156 47.9961 45.8971 47.9961 44.7037C47.9961 43.5514 48.3867 42.5535 49.168 41.7099C49.9492 40.8663 50.9062 40.4444 52.0391 40.4444C53.1719 40.4444 54.1387 40.8663 54.9395 41.7099C55.7402 42.5535 56.1406 43.5514 56.1406 44.7037C56.1406 45.8971 55.7402 46.9156 54.9395 47.7593C54.1387 48.6029 53.1719 49.0247 52.0391 49.0247ZM60.125 36.3704H59.0703C58.7578 36.3704 58.5039 36.2572 58.3086 36.0309C58.1133 35.8045 58.0156 35.5267 58.0156 35.1975V34.0864H60.125V36.3704ZM18.9922 42.6667C18.4453 42.6667 17.9863 42.8724 17.6152 43.284C17.2441 43.6955 17.0586 44.1687 17.0586 44.7037C17.0586 45.2798 17.2441 45.7634 17.6152 46.1543C17.9863 46.5453 18.4453 46.7407 18.9922 46.7407C19.5 46.7407 19.9492 46.5453 20.3398 46.1543C20.7305 45.7634 20.9258 45.2798 20.9258 44.7037C20.9258 44.1687 20.7305 43.6955 20.3398 43.284C19.9492 42.8724 19.5 42.6667 18.9922 42.6667ZM52.0391 42.6667C51.4922 42.6667 51.0332 42.8724 50.6621 43.284C50.291 43.6955 50.1055 44.1687 50.1055 44.7037C50.1055 45.2798 50.291 45.7634 50.6621 46.1543C51.0332 46.5453 51.4922 46.7407 52.0391 46.7407C52.5859 46.7407 53.0449 46.5453 53.416 46.1543C53.7871 45.7634 53.9727 45.2798 53.9727 44.7037C53.9727 44.1687 53.7871 43.6955 53.416 43.284C53.0449 42.8724 52.5859 42.6667 52.0391 42.6667ZM41.0234 38.4691H26.9609C26.7266 38.4691 26.5117 38.5617 26.3164 38.7469C26.1211 38.9321 26.0234 39.1687 26.0234 39.4568C26.0234 39.7037 26.1211 39.93 26.3164 40.1358C26.5117 40.3416 26.7266 40.4444 26.9609 40.4444H41.0234C41.2969 40.4444 41.5215 40.3416 41.6973 40.1358C41.873 39.93 41.9609 39.7037 41.9609 39.4568C41.9609 39.1687 41.873 38.9321 41.6973 38.7469C41.5215 38.5617 41.2969 38.4691 41.0234 38.4691ZM16.9414 34.2099H4.92969C4.69531 34.2099 4.48047 34.3128 4.28516 34.5185C4.08984 34.7243 3.99219 34.9506 3.99219 35.1975C3.99219 35.4856 4.08984 35.7222 4.28516 35.9074C4.48047 36.0926 4.69531 36.1852 4.92969 36.1852H16.9414C17.2148 36.1852 17.4395 36.0926 17.6152 35.9074C17.791 35.7222 17.8789 35.4856 17.8789 35.1975C17.8789 34.9506 17.791 34.7243 17.6152 34.5185C17.4395 34.3128 17.2148 34.2099 16.9414 34.2099ZM34.6953 20.8148C34.5 20.6091 34.2754 20.5062 34.0215 20.5062C33.7676 20.5062 33.543 20.6091 33.3477 20.8148L24.9688 29.5802L20.6328 25.0123C20.4375 24.8066 20.2129 24.7037 19.959 24.7037C19.7051 24.7037 19.4805 24.8066 19.2852 25.0123C19.1289 25.2181 19.0508 25.4547 19.0508 25.7222C19.0508 25.9897 19.1289 26.2263 19.2852 26.4321L24.3242 31.679C24.4023 31.8025 24.5 31.8848 24.6172 31.9259C24.7344 31.9671 24.8516 31.9877 24.9688 31.9877C25.0859 31.9877 25.2031 31.9671 25.3203 31.9259C25.4375 31.8848 25.5547 31.8025 25.6719 31.679L34.6953 22.1728C34.8516 22.0082 34.9297 21.7819 34.9297 21.4938C34.9297 21.2058 34.8516 20.9794 34.6953 20.8148Z" fill="#F29721"/>
</svg>
