<svg width="64" height="64" viewBox="0 0 64 64" fill="none" xmlns="http://www.w3.org/2000/svg">
<path d="M29.8302 21.9424C29.66 21.9424 29.4926 21.8991 29.3438 21.8164C29.1951 21.7337 29.0699 21.6144 28.9801 21.4698C28.3383 20.437 27.9985 19.2452 27.9991 18.0292C28.0099 16.8233 28.3404 15.6419 28.9568 14.6054C29.5731 13.5689 30.4534 12.7144 31.5077 12.129C31.6576 12.0444 31.8269 12 31.999 12C32.1711 12 32.3403 12.0444 32.4903 12.129C33.5448 12.7142 34.4252 13.5686 35.0417 14.6052C35.6582 15.6417 35.9886 16.8232 35.9994 18.0292C35.9999 19.2448 35.6602 20.4362 35.0189 21.4688C34.879 21.6943 34.6553 21.8549 34.3971 21.9155C34.1388 21.976 33.867 21.9314 33.6416 21.7916C33.4161 21.6518 33.2555 21.4281 33.1949 21.1698C33.1344 20.9115 33.1789 20.6397 33.3188 20.4143C33.7667 19.6997 34.0027 18.8726 33.9993 18.0292C33.992 17.2763 33.807 16.5358 33.4595 15.8679C33.1119 15.2 32.6116 14.6236 31.9992 14.1856C31.3868 14.6235 30.8864 15.1999 30.5389 15.8678C30.1913 16.5358 30.0064 17.2763 29.9992 18.0292C29.9953 18.8725 30.2309 19.6997 30.6787 20.4143C30.7729 20.5658 30.8248 20.7397 30.8292 20.918C30.8335 21.0964 30.79 21.2726 30.7033 21.4285C30.6166 21.5843 30.4898 21.7142 30.336 21.8046C30.1822 21.8949 30.007 21.9425 29.8287 21.9424H29.8302Z" fill="#F29721"/>
<path d="M31.9992 52C31.827 52 31.6577 51.9556 31.5077 51.871C30.7105 51.4464 30.0085 50.8631 29.4451 50.1571C28.8817 49.451 28.4687 48.6372 28.2315 47.7656C27.9943 46.894 27.938 45.9831 28.0659 45.0889C28.1939 44.1947 28.5035 43.3362 28.9756 42.5661C29.1138 42.3397 29.3363 42.1774 29.5941 42.115C29.8519 42.0526 30.124 42.0952 30.3504 42.2334C30.5769 42.3716 30.7391 42.594 30.8015 42.8519C30.8639 43.1097 30.8214 43.3817 30.6832 43.6082C30.0635 44.614 29.8545 45.8196 30.0995 46.9753C30.3445 48.131 31.0247 49.1481 31.9992 49.8159C32.9738 49.1482 33.6542 48.1311 33.8993 46.9754C34.1444 45.8197 33.9354 44.614 33.3158 43.6082C33.1807 43.3819 33.1404 43.1115 33.2036 42.8556C33.2668 42.5998 33.4285 42.3793 33.6534 42.242C33.8783 42.1047 34.1484 42.0617 34.4048 42.1224C34.6612 42.1831 34.8833 42.3426 35.0229 42.5661C35.495 43.3362 35.8047 44.1948 35.9326 45.089C36.0606 45.9832 36.0043 46.8942 35.767 47.7658C35.5298 48.6374 35.1167 49.4512 34.5532 50.1572C33.9896 50.8632 33.2876 51.4464 32.4903 51.871C32.3405 51.9556 32.1713 52.0001 31.9992 52Z" fill="#F29721"/>
<path d="M18.0292 35.9994C16.8232 35.9886 15.6417 35.6582 14.6052 35.0417C13.5686 34.4252 12.7142 33.5448 12.129 32.4903C12.0444 32.3403 12 32.1711 12 31.999C12 31.8269 12.0444 31.6576 12.129 31.5077C12.7144 30.4534 13.5689 29.5731 14.6054 28.9568C15.6419 28.3404 16.8233 28.0099 18.0292 27.9991C19.245 27.9984 20.4367 28.3383 21.4693 28.9801C21.6948 29.1201 21.8554 29.3439 21.9158 29.6023C21.9763 29.8607 21.9316 30.1325 21.7916 30.3579C21.6516 30.5834 21.4278 30.744 21.1694 30.8044C20.9111 30.8648 20.6392 30.8202 20.4138 30.6802C19.6994 30.2322 18.8725 29.996 18.0292 29.9992C17.2763 30.0063 16.5357 30.1912 15.8678 30.5388C15.1999 30.8864 14.6235 31.3868 14.1856 31.9992C14.6236 32.6116 15.2 33.1119 15.8679 33.4595C16.5358 33.807 17.2763 33.992 18.0292 33.9993C18.8723 34.0032 19.6992 33.7678 20.4138 33.3203C20.5254 33.251 20.6496 33.2043 20.7793 33.183C20.9089 33.1617 21.0415 33.1661 21.1694 33.1961C21.2974 33.226 21.4182 33.2808 21.5249 33.3574C21.6317 33.434 21.7223 33.5309 21.7916 33.6426C21.8609 33.7542 21.9076 33.8784 21.9289 34.008C21.9502 34.1377 21.9457 34.2703 21.9158 34.3982C21.8859 34.5261 21.8311 34.6469 21.7545 34.7537C21.6779 34.8604 21.581 34.951 21.4693 35.0204C20.4365 35.6615 19.2448 36.0006 18.0292 35.9994Z" fill="#F29721"/>
<path d="M46.0303 35.9994C44.8078 35.9985 43.6091 35.6606 42.5661 35.0229C42.4527 34.9551 42.3537 34.8656 42.2751 34.7593C42.1965 34.6531 42.1396 34.5324 42.1079 34.4041C42.0762 34.2758 42.0703 34.1425 42.0904 34.0119C42.1105 33.8813 42.1563 33.756 42.2252 33.6432C42.294 33.5304 42.3846 33.4323 42.4916 33.3547C42.5985 33.2771 42.7198 33.2215 42.8484 33.191C42.977 33.1606 43.1104 33.156 43.2408 33.1774C43.3712 33.1988 43.4961 33.2458 43.6082 33.3158C44.614 33.9354 45.8197 34.1444 46.9754 33.8993C48.1311 33.6542 49.1482 32.9738 49.8159 31.9992C49.1482 31.0247 48.1311 30.3443 46.9754 30.0992C45.8197 29.8541 44.614 30.063 43.6082 30.6827C43.3819 30.8178 43.1115 30.8581 42.8556 30.7949C42.5998 30.7316 42.3793 30.57 42.242 30.3451C42.1047 30.1202 42.0617 29.8501 42.1224 29.5937C42.1831 29.3372 42.3426 29.1151 42.5661 28.9756C43.3362 28.5035 44.1947 28.1939 45.0889 28.0659C45.9831 27.938 46.894 27.9943 47.7656 28.2315C48.6372 28.4687 49.451 28.8817 50.1571 29.4451C50.8631 30.0085 51.4464 30.7105 51.871 31.5077C51.9556 31.6576 52 31.8269 52 31.999C52 32.1711 51.9556 32.3403 51.871 32.4903C51.3019 33.5455 50.4593 34.4281 49.4317 35.0455C48.404 35.6629 47.2291 35.9924 46.0303 35.9994Z" fill="#F29721"/>
<path d="M20.1768 46.6558C19.5408 46.6558 18.9078 46.5691 18.2952 46.3983C18.1293 46.3521 17.9782 46.2638 17.8564 46.1421C17.7347 46.0203 17.6464 45.8691 17.6002 45.7033C17.2683 44.5437 17.2501 43.3168 17.5473 42.1478C17.8446 40.9788 18.4467 39.9097 19.2923 39.0495C20.1516 38.1896 21.2342 37.5871 22.4179 37.3099C22.6765 37.2495 22.9485 37.2942 23.1741 37.4343C23.3997 37.5744 23.5605 37.7984 23.6209 38.057C23.6814 38.3156 23.6367 38.5876 23.4966 38.8132C23.3565 39.0388 23.1325 39.1995 22.8739 39.26C22.0517 39.4489 21.3 39.8673 20.7063 40.4666C20.1791 41.0039 19.7862 41.6581 19.5596 42.376C19.3331 43.0939 19.2794 43.8551 19.4028 44.5977C20.1455 44.7208 20.9067 44.6669 21.6247 44.4405C22.3427 44.2141 22.9971 43.8215 23.5349 43.2947C24.1339 42.701 24.5522 41.9495 24.741 41.1276C24.8029 40.871 24.9638 40.6493 25.1885 40.5109C25.4132 40.3724 25.6836 40.3284 25.9406 40.3885C26.1976 40.4485 26.4205 40.6078 26.5606 40.8314C26.7007 41.0551 26.7467 41.3251 26.6885 41.5826C26.4114 42.7657 25.8088 43.8477 24.949 44.7062C23.6796 45.9631 21.9631 46.6643 20.1768 46.6558Z" fill="#F29721"/>
<path d="M41.3726 26.6935C41.1279 26.6934 40.8917 26.6036 40.7088 26.4411C40.5259 26.2785 40.4089 26.0546 40.38 25.8116C40.3511 25.5686 40.4123 25.3235 40.552 25.1226C40.6917 24.9217 40.9002 24.779 41.1381 24.7215C42.288 24.449 43.289 23.7445 43.9334 22.754C44.5779 21.7635 44.8165 20.5629 44.5997 19.4013C43.4386 19.1845 42.2386 19.4227 41.2483 20.0664C40.2579 20.7102 39.5532 21.7102 39.28 22.8594C39.2492 22.9871 39.1934 23.1074 39.1161 23.2136C39.0387 23.3197 38.9412 23.4096 38.8291 23.4781C38.717 23.5465 38.5925 23.5922 38.4627 23.6126C38.3329 23.6329 38.2004 23.6275 38.0727 23.5967C37.945 23.5658 37.8247 23.5101 37.7185 23.4327C37.6124 23.3554 37.5225 23.2578 37.454 23.1457C37.3856 23.0336 37.3399 22.9091 37.3195 22.7793C37.2992 22.6496 37.3046 22.5171 37.3354 22.3894C37.5461 21.5112 37.9341 20.6853 38.4757 19.9626C39.0173 19.24 39.701 18.6357 40.4848 18.187C41.2685 17.7383 42.1358 17.4546 43.0332 17.3534C43.9306 17.2523 44.8393 17.3357 45.7033 17.5987C45.8691 17.6449 46.0203 17.7332 46.1421 17.8549C46.2638 17.9767 46.3521 18.1278 46.3983 18.2937C46.6617 19.1578 46.7455 20.0665 46.6446 20.9642C46.5437 21.8618 46.2603 22.7293 45.8117 23.5133C45.3631 24.2974 44.7589 24.9813 44.0361 25.5232C43.3134 26.065 42.4875 26.4533 41.6091 26.664C41.5317 26.6832 41.4523 26.6931 41.3726 26.6935Z" fill="#F29721"/>
<path d="M43.8292 46.6558C42.0428 46.6643 40.3262 45.9628 39.057 44.7057C38.1971 43.8464 37.5948 42.7638 37.3179 41.5801C37.2854 41.4513 37.2788 41.3174 37.2985 41.186C37.3183 41.0547 37.364 40.9286 37.433 40.8151C37.5021 40.7017 37.593 40.6031 37.7006 40.5251C37.8081 40.4472 37.9301 40.3914 38.0594 40.3612C38.1887 40.3309 38.3228 40.3266 38.4537 40.3487C38.5847 40.3708 38.71 40.4188 38.8222 40.4898C38.9344 40.5608 39.0314 40.6535 39.1074 40.7624C39.1835 40.8713 39.237 40.9943 39.265 41.1241C39.4539 41.9462 39.8721 42.6978 40.4711 43.2917C41.0084 43.8192 41.6628 44.2122 42.3809 44.4386C43.099 44.6651 43.8605 44.7186 44.6032 44.5947C44.7264 43.8521 44.6725 43.0909 44.446 42.3731C44.2195 41.6552 43.8267 41.001 43.2997 40.4636C42.7062 39.8643 41.9546 39.4461 41.1326 39.2575C41.0045 39.2276 40.8836 39.1728 40.7768 39.0962C40.6699 39.0196 40.5792 38.9227 40.5098 38.8111C40.4404 38.6994 40.3936 38.5751 40.3722 38.4454C40.3508 38.3157 40.3552 38.183 40.3851 38.055C40.4149 37.9269 40.4697 37.806 40.5463 37.6992C40.6229 37.5923 40.7198 37.5016 40.8315 37.4321C40.9432 37.3627 41.0674 37.316 41.1972 37.2946C41.3269 37.2732 41.4596 37.2776 41.5876 37.3074C42.772 37.5848 43.8551 38.1883 44.7142 39.0495C45.5596 39.9098 46.1615 40.979 46.4587 42.1479C46.7559 43.3168 46.7376 44.5437 46.4058 45.7033C46.3596 45.8691 46.2714 46.0202 46.1498 46.142C46.0281 46.2637 45.8771 46.352 45.7113 46.3983C45.0985 46.5691 44.4653 46.6558 43.8292 46.6558Z" fill="#F29721"/>
<path d="M22.6329 26.694C22.5532 26.6939 22.4738 26.6843 22.3964 26.6655C21.5181 26.4547 20.6922 26.0664 19.9695 25.5246C19.2469 24.9827 18.6427 24.2987 18.1942 23.5147C17.7457 22.7306 17.4624 21.8631 17.3616 20.9655C17.2608 20.0679 17.3447 19.1592 17.6082 18.2952C17.6544 18.1293 17.7427 17.9782 17.8644 17.8564C17.9862 17.7347 18.1373 17.6464 18.3032 17.6002C19.1672 17.3366 20.076 17.2526 20.9737 17.3534C21.8714 17.4542 22.7389 17.7376 23.523 18.1862C24.307 18.6348 24.991 19.2392 25.5327 19.962C26.0744 20.6849 26.4625 21.5109 26.673 22.3894C26.7039 22.517 26.7094 22.6495 26.6891 22.7793C26.6688 22.909 26.6231 23.0335 26.5547 23.1456C26.4863 23.2577 26.3964 23.3553 26.2903 23.4327C26.1842 23.51 26.0639 23.5658 25.9363 23.5967C25.8086 23.6276 25.6761 23.633 25.5464 23.6127C25.4166 23.5924 25.2921 23.5467 25.18 23.4783C25.0679 23.4099 24.9704 23.3201 24.893 23.214C24.8156 23.1079 24.7599 22.9875 24.729 22.8599C24.4559 21.7105 23.7511 20.7103 22.7607 20.0664C21.7702 19.4225 20.57 19.1844 19.4088 19.4013C19.1919 20.5626 19.4301 21.7629 20.0741 22.7533C20.7181 23.7438 21.7184 24.4485 22.8679 24.7215C23.1063 24.7785 23.3154 24.9212 23.4555 25.1223C23.5956 25.3234 23.657 25.5689 23.628 25.8123C23.599 26.0557 23.4816 26.2799 23.2982 26.4425C23.1147 26.605 22.878 26.6946 22.6329 26.694Z" fill="#F29721"/>
<path d="M40.5586 19.7553C40.519 19.7553 40.4794 19.7532 40.4401 19.7488C40.3096 19.7334 40.1835 19.6925 40.0688 19.6283C39.9542 19.5642 39.8533 19.4781 39.772 19.375C39.6906 19.2718 39.6304 19.1537 39.5947 19.0273C39.559 18.9009 39.5486 18.7687 39.564 18.6382C39.6128 18.2214 39.6051 17.7999 39.541 17.3852C39.4413 16.741 39.2153 16.1228 38.876 15.5661C38.2411 15.7149 37.6419 15.9878 37.1129 16.3691C36.7725 16.6148 36.4667 16.9053 36.2039 17.2327C36.0358 17.4324 35.7963 17.5585 35.5365 17.584C35.2767 17.6095 35.0173 17.5325 34.8135 17.3693C34.6098 17.2061 34.478 16.9697 34.4462 16.7106C34.4144 16.4515 34.4851 16.1903 34.6433 15.9826C35.0186 15.5152 35.4549 15.1002 35.9404 14.7486C36.9069 14.0531 38.0348 13.6158 39.2175 13.478C39.3884 13.4577 39.5617 13.482 39.7205 13.5485C39.8793 13.615 40.0181 13.7215 40.1236 13.8576C40.8557 14.7964 41.3357 15.9067 41.5181 17.0832C41.6093 17.6754 41.6202 18.2771 41.5506 18.8722C41.522 19.1153 41.4052 19.3395 41.2223 19.5022C41.0395 19.665 40.8033 19.755 40.5586 19.7553Z" fill="#F29721"/>
<path d="M24.6645 50.5274C24.5121 50.5274 24.3618 50.4926 24.225 50.4256C24.0881 50.3586 23.9684 50.2612 23.8749 50.1409C23.1469 49.2118 22.6637 48.1147 22.4699 46.9503C22.3751 46.3638 22.3608 45.7671 22.4274 45.1767C22.4575 44.9132 22.5911 44.6724 22.7987 44.5073C23.0064 44.3422 23.2711 44.2664 23.5347 44.2965C23.7982 44.3266 24.0391 44.4601 24.2041 44.6678C24.3692 44.8754 24.4451 45.1402 24.415 45.4037C24.3686 45.8129 24.3785 46.2264 24.4445 46.6328C24.5504 47.2713 24.7806 47.8829 25.122 48.4329C25.7536 48.2897 26.351 48.0242 26.8805 47.6513C27.2162 47.4124 27.5178 47.129 27.7771 46.8088C27.8596 46.7066 27.9613 46.6216 28.0767 46.5588C28.192 46.4959 28.3185 46.4564 28.4491 46.4424C28.5797 46.4285 28.7118 46.4404 28.8377 46.4775C28.9637 46.5145 29.0812 46.5761 29.1834 46.6585C29.2856 46.741 29.3705 46.8428 29.4334 46.9581C29.4963 47.0734 29.5358 47.2 29.5498 47.3306C29.5637 47.4612 29.5518 47.5932 29.5147 47.7192C29.4776 47.8452 29.4161 47.9626 29.3336 48.0648C28.9602 48.5271 28.5251 48.9359 28.0406 49.2799C27.0754 49.9595 25.9549 50.3856 24.782 50.5189C24.743 50.524 24.7038 50.5268 24.6645 50.5274Z" fill="#F29721"/>
<path d="M16.6062 29.5746C16.3788 29.575 16.1581 29.4974 15.9811 29.3546C15.5141 28.9797 15.0996 28.5438 14.7486 28.0586C14.0529 27.0922 13.6154 25.9642 13.4775 24.7815C13.4574 24.6105 13.4818 24.4372 13.5483 24.2784C13.6147 24.1195 13.7211 23.9806 13.8571 23.8749C14.796 23.143 15.9063 22.6629 17.0827 22.4799C17.6748 22.3893 18.2763 22.3786 18.8712 22.4479C19.1347 22.4788 19.3751 22.6131 19.5395 22.8212C19.7039 23.0293 19.7789 23.2942 19.748 23.5577C19.7171 23.8211 19.5828 24.0615 19.3747 24.2259C19.1666 24.3903 18.9017 24.4654 18.6382 24.4345C18.2212 24.3861 17.7996 24.3939 17.3847 24.4575C16.7404 24.5571 16.1221 24.7833 15.5656 25.123C15.7148 25.7577 15.9877 26.3568 16.3686 26.886C16.6148 27.226 16.9052 27.5315 17.2322 27.7946C17.3938 27.9242 17.5111 28.1008 17.568 28.3001C17.6249 28.4993 17.6185 28.7112 17.5497 28.9066C17.4809 29.102 17.3531 29.2713 17.184 29.3909C17.0149 29.5106 16.8133 29.5748 16.6062 29.5746Z" fill="#F29721"/>
<path d="M45.9083 41.6126C45.6638 41.6123 45.4196 41.5984 45.1767 41.5711C44.9132 41.541 44.6724 41.4074 44.5073 41.1998C44.3422 40.9921 44.2664 40.7274 44.2965 40.4638C44.3266 40.2002 44.4601 39.9594 44.6678 39.7943C44.8754 39.6293 45.1402 39.5534 45.4037 39.5835C45.813 39.6297 46.2267 39.6197 46.6333 39.554C47.2718 39.4478 47.8833 39.2177 48.4334 38.8765C48.29 38.2449 48.0244 37.6474 47.6513 37.1179C47.4126 36.782 47.1292 36.4802 46.8088 36.2209C46.7052 36.1388 46.6189 36.0371 46.5549 35.9215C46.4909 35.8059 46.4505 35.6787 46.4359 35.5474C46.4213 35.4161 46.4329 35.2831 46.47 35.1563C46.5071 35.0295 46.569 34.9113 46.652 34.8085C46.7351 34.7057 46.8377 34.6204 46.9539 34.5576C47.0701 34.4947 47.1976 34.4554 47.3291 34.4421C47.4605 34.4288 47.5933 34.4417 47.7198 34.48C47.8463 34.5183 47.9639 34.5813 48.0658 34.6653C48.5278 35.0388 48.9364 35.4736 49.2804 35.9579C49.9596 36.9235 50.3856 38.0441 50.5194 39.217C50.5396 39.388 50.5152 39.5613 50.4487 39.7201C50.3822 39.8789 50.2759 40.0179 50.1399 40.1235C49.2109 40.8516 48.114 41.3349 46.9498 41.5291C46.6054 41.5845 46.2571 41.6124 45.9083 41.6126Z" fill="#F29721"/>
<path d="M18.0797 41.4956C17.7235 41.4957 17.3679 41.4672 17.0162 41.4106C15.8403 41.2196 14.7327 40.7313 13.7985 39.992C13.6634 39.8853 13.5581 39.7455 13.4928 39.5862C13.4276 39.4269 13.4046 39.2534 13.426 39.0825C13.5723 37.9012 14.0179 36.7767 14.7206 35.8159C15.0749 35.3328 15.4926 34.8997 15.9626 34.5283C16.0658 34.4469 16.184 34.3866 16.3104 34.3509C16.4369 34.3151 16.5692 34.3046 16.6997 34.32C16.8302 34.3354 16.9564 34.3763 17.0711 34.4404C17.1858 34.5046 17.2868 34.5907 17.3682 34.6938C17.4496 34.797 17.5099 34.9152 17.5457 35.0416C17.5814 35.1681 17.5919 35.3004 17.5765 35.4309C17.5612 35.5614 17.5202 35.6876 17.4561 35.8023C17.3919 35.917 17.3058 36.018 17.2027 36.0994C16.8737 36.3591 16.5811 36.6618 16.3326 36.9994C15.9479 37.5258 15.6708 38.1229 15.5171 38.7565C16.0716 39.1 16.6884 39.3308 17.3322 39.4355C17.7456 39.5018 18.166 39.5126 18.5822 39.4675C18.8451 39.44 19.1082 39.5178 19.3139 39.6837C19.5197 39.8496 19.6514 40.0902 19.6802 40.3529C19.7091 40.6156 19.6328 40.8791 19.468 41.0857C19.3032 41.2923 19.0633 41.4253 18.8007 41.4556C18.5613 41.4821 18.3206 41.4955 18.0797 41.4956Z" fill="#F29721"/>
<path d="M47.4633 29.6667C47.2558 29.6667 47.0533 29.6023 46.8841 29.4821C46.7148 29.362 46.5871 29.1922 46.5187 28.9962C46.4503 28.8003 46.4445 28.5879 46.5022 28.3885C46.56 28.1892 46.6783 28.0127 46.8408 27.8836C47.1635 27.6272 47.4495 27.3277 47.6908 26.9936C48.0679 26.4668 48.338 25.8712 48.4859 25.2405C47.9378 24.8954 47.3274 24.661 46.6893 24.5505C46.2833 24.4813 45.8698 24.4683 45.4602 24.512C45.3296 24.5259 45.1976 24.5141 45.0716 24.477C44.9455 24.44 44.8281 24.3784 44.7258 24.296C44.5193 24.1294 44.3875 23.8877 44.3592 23.6239C44.331 23.3602 44.4087 23.096 44.5752 22.8895C44.7417 22.683 44.9835 22.5511 45.2472 22.5229C45.8383 22.4602 46.4352 22.4787 47.0213 22.5779C48.1842 22.7805 49.2776 23.2717 50.2014 24.0064C50.3367 24.1131 50.4421 24.2529 50.5074 24.4122C50.5728 24.5716 50.5959 24.7451 50.5744 24.916C50.4322 26.088 49.9979 27.2056 49.3114 28.1661C48.9633 28.6479 48.5505 29.0797 48.0849 29.4491C47.9083 29.5899 47.6892 29.6666 47.4633 29.6667Z" fill="#F29721"/>
<path d="M39.2145 50.5829C39.173 50.583 39.1316 50.5803 39.0905 50.5749C37.9086 50.429 36.7836 49.9834 35.8224 49.2804C35.3396 48.926 34.9065 48.5085 34.5348 48.0388C34.3767 47.8302 34.3067 47.5678 34.3398 47.3081C34.373 47.0484 34.5067 46.8121 34.7122 46.6498C34.9177 46.4876 35.1786 46.4124 35.4389 46.4405C35.6992 46.4685 35.9382 46.5975 36.1044 46.7998C36.3648 47.1289 36.6684 47.4214 37.0069 47.6693C37.5332 48.0545 38.1303 48.332 38.764 48.4859C39.1075 47.9316 39.3382 47.3149 39.443 46.6713C39.5099 46.2568 39.5205 45.8351 39.4745 45.4177C39.4455 45.154 39.5224 44.8896 39.6883 44.6826C39.8542 44.4756 40.0956 44.343 40.3593 44.314C40.623 44.2849 40.8874 44.3618 41.0944 44.5277C41.3015 44.6937 41.4341 44.935 41.4631 45.1987C41.528 45.7945 41.5126 46.3962 41.4176 46.9878C41.2257 48.1624 40.7376 49.2687 39.9995 50.2024C39.9059 50.321 39.7867 50.4169 39.6507 50.4828C39.5147 50.5487 39.3656 50.5829 39.2145 50.5829Z" fill="#F29721"/>
<path d="M23.5234 19.6488C23.2768 19.6486 23.0389 19.5572 22.8555 19.3923C22.6721 19.2274 22.5561 19.0005 22.5299 18.7552C22.4675 18.1643 22.486 17.5676 22.5849 16.9817C22.7875 15.8186 23.2787 14.7251 24.0134 13.801C24.1199 13.6656 24.2596 13.5601 24.4191 13.4948C24.5785 13.4295 24.7521 13.4067 24.923 13.4285C26.0949 13.5705 27.2125 14.0044 28.1731 14.6906C28.6548 15.0384 29.0868 15.4504 29.4571 15.9151C29.5389 16.0179 29.5996 16.1358 29.6358 16.2621C29.672 16.3883 29.6829 16.5205 29.6681 16.651C29.6532 16.7815 29.6127 16.9078 29.5491 17.0226C29.4854 17.1375 29.3997 17.2387 29.2969 17.3204C29.1941 17.4022 29.0762 17.4629 28.9499 17.4991C28.8237 17.5353 28.6915 17.5462 28.561 17.5314C28.4305 17.5165 28.3043 17.476 28.1894 17.4123C28.0745 17.3487 27.9733 17.263 27.8916 17.1602C27.6342 16.8382 27.3339 16.5531 26.999 16.3126C26.4732 15.936 25.8786 15.6661 25.249 15.5181C24.9037 16.0661 24.6691 16.6765 24.5585 17.3147C24.4895 17.7207 24.4766 18.1342 24.52 18.5437C24.548 18.8073 24.4702 19.0713 24.3036 19.2776C24.1371 19.4838 23.8955 19.6156 23.6319 19.6438C23.5959 19.6474 23.5597 19.6491 23.5234 19.6488Z" fill="#F29721"/>
<path d="M31.9992 43.9997C29.6258 43.9997 27.3056 43.2959 25.3321 41.9773C23.3587 40.6586 21.8206 38.7844 20.9123 36.5916C20.004 34.3988 19.7663 31.9859 20.2294 29.6581C20.6924 27.3302 21.8353 25.1919 23.5136 23.5136C25.1919 21.8353 27.3302 20.6924 29.6581 20.2294C31.9859 19.7663 34.3988 20.004 36.5916 20.9123C38.7844 21.8206 40.6586 23.3587 41.9773 25.3321C43.2959 27.3056 43.9997 29.6258 43.9997 31.9992C43.996 35.1808 42.7305 38.231 40.4808 40.4808C38.231 42.7305 35.1808 43.996 31.9992 43.9997ZM31.9992 21.9989C30.0214 21.9989 28.0879 22.5854 26.4433 23.6842C24.7988 24.7831 23.517 26.3449 22.7601 28.1723C22.0032 29.9996 21.8051 32.0103 22.191 33.9502C22.5769 35.8901 23.5293 37.672 24.9279 39.0706C26.3265 40.4692 28.1084 41.4216 30.0483 41.8075C31.9881 42.1933 33.9989 41.9953 35.8262 41.2384C37.6536 40.4815 39.2154 39.1997 40.3143 37.5552C41.4131 35.9106 41.9996 33.9771 41.9996 31.9992C41.9966 29.3479 40.942 26.806 39.0672 24.9313C37.1924 23.0565 34.6506 22.0019 31.9992 21.9989Z" fill="#F29721"/>
<path d="M29.9992 24.999C29.9992 25.1968 29.9405 25.3901 29.8306 25.5546C29.7207 25.719 29.5646 25.8472 29.3818 25.9229C29.1991 25.9986 28.998 26.0184 28.804 25.9798C28.61 25.9412 28.4319 25.846 28.292 25.7061C28.1521 25.5663 28.0569 25.3881 28.0183 25.1941C27.9797 25.0001 27.9995 24.799 28.0752 24.6163C28.1509 24.4335 28.2791 24.2774 28.4435 24.1675C28.608 24.0576 28.8013 23.9989 28.9991 23.9989C29.2644 23.9989 29.5187 24.1043 29.7063 24.2918C29.8938 24.4794 29.9992 24.7337 29.9992 24.999Z" fill="#F29721"/>
<path d="M27.9991 36.9994C27.9991 37.1972 27.9404 37.3906 27.8306 37.555C27.7207 37.7195 27.5645 37.8477 27.3817 37.9233C27.199 37.999 26.9979 38.0188 26.804 37.9803C26.61 37.9417 26.4318 37.8464 26.2919 37.7066C26.1521 37.5667 26.0568 37.3885 26.0182 37.1945C25.9796 37.0005 25.9994 36.7995 26.0751 36.6167C26.1508 36.434 26.279 36.2778 26.4435 36.1679C26.6079 36.058 26.8013 35.9994 26.9991 35.9994C27.2643 35.9994 27.5186 36.1048 27.7062 36.2923C27.8937 36.4798 27.9991 36.7342 27.9991 36.9994Z" fill="#F29721"/>
<path d="M35.9994 24.999C35.9994 25.1968 35.9407 25.3901 35.8309 25.5546C35.721 25.719 35.5648 25.8472 35.3821 25.9229C35.1993 25.9986 34.9982 26.0184 34.8043 25.9798C34.6103 25.9412 34.4321 25.846 34.2922 25.7061C34.1524 25.5663 34.0571 25.3881 34.0185 25.1941C33.9799 25.0001 33.9998 24.799 34.0754 24.6163C34.1511 24.4335 34.2793 24.2774 34.4438 24.1675C34.6082 24.0576 34.8016 23.9989 34.9994 23.9989C35.2646 23.9989 35.5189 24.1043 35.7065 24.2918C35.894 24.4794 35.9994 24.7337 35.9994 24.999Z" fill="#F29721"/>
<path d="M37.9995 34.9994C37.9995 35.1971 37.9408 35.3905 37.8309 35.5549C37.721 35.7194 37.5649 35.8476 37.3821 35.9233C37.1994 35.999 36.9983 36.0188 36.8043 35.9802C36.6103 35.9416 36.4322 35.8463 36.2923 35.7065C36.1524 35.5666 36.0572 35.3884 36.0186 35.1945C35.98 35.0005 35.9998 34.7994 36.0755 34.6167C36.1512 34.4339 36.2794 34.2777 36.4438 34.1679C36.6083 34.058 36.8016 33.9993 36.9994 33.9993C37.2647 33.9993 37.519 34.1047 37.7066 34.2922C37.8941 34.4798 37.9995 34.7341 37.9995 34.9994Z" fill="#F29721"/>
<path d="M39.9995 28.9991C39.9995 29.1969 39.9409 29.3903 39.831 29.5547C39.7211 29.7192 39.5649 29.8474 39.3822 29.923C39.1995 29.9987 38.9984 30.0185 38.8044 29.9799C38.6104 29.9414 38.4322 29.8461 38.2924 29.7063C38.1525 29.5664 38.0573 29.3882 38.0187 29.1942C37.9801 29.0002 37.9999 28.7992 38.0756 28.6164C38.1513 28.4337 38.2795 28.2775 38.4439 28.1676C38.6084 28.0577 38.8017 27.9991 38.9995 27.9991C39.2647 27.9991 39.5191 28.1044 39.7066 28.292C39.8942 28.4795 39.9995 28.7339 39.9995 28.9991Z" fill="#F29721"/>
<path d="M33.9993 38.9995C33.9993 39.1973 33.9407 39.3906 33.8308 39.5551C33.7209 39.7196 33.5647 39.8477 33.382 39.9234C33.1992 39.9991 32.9982 40.0189 32.8042 39.9803C32.6102 39.9417 32.432 39.8465 32.2921 39.7066C32.1523 39.5668 32.057 39.3886 32.0185 39.1946C31.9799 39.0006 31.9997 38.7995 32.0754 38.6168C32.1511 38.4341 32.2792 38.2779 32.4437 38.168C32.6081 38.0581 32.8015 37.9995 32.9993 37.9995C33.2645 37.9995 33.5189 38.1048 33.7064 38.2924C33.894 38.4799 33.9993 38.7343 33.9993 38.9995Z" fill="#F29721"/>
<path d="M25.999 30.9992C25.999 31.197 25.9404 31.3903 25.8305 31.5548C25.7206 31.7192 25.5644 31.8474 25.3817 31.9231C25.1989 31.9988 24.9979 32.0186 24.8039 31.98C24.6099 31.9414 24.4317 31.8462 24.2918 31.7063C24.152 31.5665 24.0567 31.3883 24.0182 31.1943C23.9796 31.0003 23.9994 30.7992 24.0751 30.6165C24.1508 30.4338 24.2789 30.2776 24.4434 30.1677C24.6078 30.0578 24.8012 29.9992 24.999 29.9992C25.2642 29.9992 25.5186 30.1045 25.7061 30.2921C25.8937 30.4796 25.999 30.734 25.999 30.9992Z" fill="#F29721"/>
<path d="M31.9992 30.9992C31.9992 31.197 31.9406 31.3903 31.8307 31.5548C31.7208 31.7192 31.5646 31.8474 31.3819 31.9231C31.1992 31.9988 30.9981 32.0186 30.8041 31.98C30.6101 31.9414 30.4319 31.8462 30.2921 31.7063C30.1522 31.5665 30.057 31.3883 30.0184 31.1943C29.9798 31.0003 29.9996 30.7992 30.0753 30.6165C30.151 30.4338 30.2792 30.2776 30.4436 30.1677C30.6081 30.0578 30.8014 29.9992 30.9992 29.9992C31.2644 29.9992 31.5188 30.1045 31.7063 30.2921C31.8939 30.4796 31.9992 30.734 31.9992 30.9992Z" fill="#F29721"/>
</svg>
