<svg width="64" height="64" viewBox="0 0 64 64" fill="none" xmlns="http://www.w3.org/2000/svg">
<path fill-rule="evenodd" clip-rule="evenodd" d="M6.625 37C6.625 36.4477 7.03074 36 7.53125 36H45.5938C46.0943 36 46.5 36.4477 46.5 37C46.5 37.5523 46.0943 38 45.5938 38H8.4375V48H55.5625V38H52.8438C52.3432 38 51.9375 37.5523 51.9375 37C51.9375 36.4477 52.3432 36 52.8438 36H56.4688C56.9693 36 57.375 36.4477 57.375 37V49C57.375 49.5523 56.9693 50 56.4688 50H7.53125C7.03074 50 6.625 49.5523 6.625 49V37Z" fill="#F29721"/>
<path fill-rule="evenodd" clip-rule="evenodd" d="M6.625 41C6.625 40.4477 7.03074 40 7.53125 40H56.4688C56.9693 40 57.375 40.4477 57.375 41C57.375 41.5523 56.9693 42 56.4688 42H7.53125C7.03074 42 6.625 41.5523 6.625 41Z" fill="#F29721"/>
<path fill-rule="evenodd" clip-rule="evenodd" d="M6.625 45C6.625 44.4477 7.03074 44 7.53125 44H56.4688C56.9693 44 57.375 44.4477 57.375 45C57.375 45.5523 56.9693 46 56.4688 46H7.53125C7.03074 46 6.625 45.5523 6.625 45Z" fill="#F29721"/>
<path fill-rule="evenodd" clip-rule="evenodd" d="M3.90625 40C4.40676 40 4.8125 40.4477 4.8125 41V45C4.8125 45.5523 4.40676 46 3.90625 46C3.40574 46 3 45.5523 3 45V41C3 40.4477 3.40574 40 3.90625 40Z" fill="#F29721"/>
<path fill-rule="evenodd" clip-rule="evenodd" d="M60.0938 40C60.5943 40 61 40.4477 61 41V45C61 45.5523 60.5943 46 60.0938 46C59.5932 46 59.1875 45.5523 59.1875 45V41C59.1875 40.4477 59.5932 40 60.0938 40Z" fill="#F29721"/>
<path fill-rule="evenodd" clip-rule="evenodd" d="M22.9375 21C22.9375 20.4477 23.3432 20 23.8438 20H40.1562C40.6568 20 41.0625 20.4477 41.0625 21V33C41.0625 33.5523 40.6568 34 40.1562 34C39.6557 34 39.25 33.5523 39.25 33V22H24.75V33C24.75 33.5523 24.3443 34 23.8438 34C23.3432 34 22.9375 33.5523 22.9375 33V21Z" fill="#F29721"/>
<path fill-rule="evenodd" clip-rule="evenodd" d="M57.6404 14.2929C57.9943 13.9024 58.5682 13.9024 58.9221 14.2929L60.7346 16.2929C61.0885 16.6834 61.0885 17.3166 60.7346 17.7071C60.3807 18.0976 59.8068 18.0976 59.4529 17.7071L58.2812 16.4142L44.4221 31.7071C44.0682 32.0976 43.4943 32.0976 43.1404 31.7071C42.7865 31.3166 42.7865 30.6834 43.1404 30.2929L57.6404 14.2929Z" fill="#F29721"/>
<path fill-rule="evenodd" clip-rule="evenodd" d="M22.9375 25C22.9375 24.4477 23.3432 24 23.8438 24H40.1562C40.6568 24 41.0625 24.4477 41.0625 25C41.0625 25.5523 40.6568 26 40.1562 26H23.8438C23.3432 26 22.9375 25.5523 22.9375 25Z" fill="#F29721"/>
<path d="M50.125 37C50.125 37.5523 49.7193 38 49.2188 38C48.7182 38 48.3125 37.5523 48.3125 37C48.3125 36.4477 48.7182 36 49.2188 36C49.7193 36 50.125 36.4477 50.125 37Z" fill="#F29721"/>
</svg>
