<svg width="64" height="64" viewBox="0 0 64 64" fill="none" xmlns="http://www.w3.org/2000/svg">
<path d="M46.6475 28.9468C46.6475 29.3676 46.5129 29.779 46.2607 30.1289C46.0086 30.4788 45.6501 30.7515 45.2307 30.9125C44.8114 31.0735 44.3499 31.1157 43.9047 31.0336C43.4595 30.9515 43.0506 30.7488 42.7296 30.4513C42.4086 30.1537 42.19 29.7746 42.1015 29.3619C42.0129 28.9492 42.0584 28.5214 42.2321 28.1326C42.4058 27.7438 42.7 27.4115 43.0774 27.1777C43.4548 26.9439 43.8985 26.8191 44.3525 26.8191C44.9612 26.8191 45.5449 27.0433 45.9753 27.4423C46.4057 27.8413 46.6475 28.3825 46.6475 28.9468ZM37.9262 18.3085H28.7459C28.3807 18.3085 28.0304 18.443 27.7722 18.6824C27.5139 18.9218 27.3689 19.2465 27.3689 19.5851C27.3689 19.9237 27.5139 20.2484 27.7722 20.4878C28.0304 20.7272 28.3807 20.8617 28.7459 20.8617H37.9262C38.2914 20.8617 38.6417 20.7272 38.9 20.4878C39.1582 20.2484 39.3033 19.9237 39.3033 19.5851C39.3033 19.2465 39.1582 18.9218 38.9 18.6824C38.6417 18.443 38.2914 18.3085 37.9262 18.3085ZM59.5 28.0957V34.9043C59.5 36.1457 58.968 37.3363 58.0211 38.2141C57.0742 39.0919 55.7899 39.5851 54.4508 39.5851H53.5856L49.7574 49.5234C49.5344 50.1021 49.1237 50.6027 48.5818 50.9566C48.0398 51.3105 47.3931 51.5003 46.7302 51.5H43.8108C43.1479 51.5003 42.5012 51.3105 41.9592 50.9566C41.4173 50.6027 41.0066 50.1021 40.7836 49.5234L40.2351 48.0957H26.437L25.8885 49.5234C25.6655 50.1021 25.2549 50.6027 24.7129 50.9566C24.171 51.3105 23.5242 51.5003 22.8613 51.5H19.942C19.2791 51.5003 18.6323 51.3105 18.0904 50.9566C17.5484 50.6027 17.1378 50.1021 16.9148 49.5234L14.0023 41.9638C11.1461 38.9943 9.41565 35.2405 9.07475 31.2745C8.25357 31.5291 7.53945 32.0165 7.03331 32.6679C6.52717 33.3192 6.25459 34.1015 6.2541 34.9043C6.2541 35.2428 6.10902 35.5675 5.85077 35.8069C5.59252 36.0464 5.24227 36.1809 4.87705 36.1809C4.51183 36.1809 4.16158 36.0464 3.90333 35.8069C3.64508 35.5675 3.5 35.2428 3.5 34.9043C3.50011 33.426 4.05367 31.9936 5.0662 30.8516C6.07872 29.7096 7.48742 28.9288 9.0518 28.6426C9.37401 24.0014 11.5883 19.6476 15.2455 16.4642C18.9028 13.2808 23.7292 11.5061 28.7459 11.5H52.6148C52.98 11.5 53.3302 11.6345 53.5885 11.8739C53.8467 12.1133 53.9918 12.438 53.9918 12.7766C53.9918 13.1152 53.8467 13.4399 53.5885 13.6793C53.3302 13.9187 52.98 14.0532 52.6148 14.0532H46.1472C49.7318 16.0181 52.5534 18.9847 54.2075 22.5277C54.3452 22.8213 54.4738 23.117 54.5931 23.417C55.907 23.4514 57.1547 23.9594 58.071 24.833C58.9873 25.7067 59.4999 26.8772 59.5 28.0957ZM56.7459 28.0957C56.7459 27.5315 56.5041 26.9903 56.0737 26.5913C55.6433 26.1922 55.0595 25.9681 54.4508 25.9681H53.6108C53.3175 25.9684 53.0318 25.8819 52.7953 25.7211C52.5587 25.5604 52.3837 25.3338 52.2957 25.0745C52.1206 24.5546 51.9153 24.044 51.6807 23.5447C50.3644 20.7249 48.1869 18.3239 45.4167 16.6373C42.6464 14.9508 39.4044 14.0525 36.0902 14.0532H28.7459C25.4496 14.0529 22.2245 14.9418 19.4639 16.6116C16.7032 18.2814 14.5264 20.6599 13.1989 23.4569C11.8713 26.2539 11.4505 29.3486 11.9876 32.3636C12.5248 35.3785 13.9967 38.1834 16.2239 40.4362C16.3475 40.5589 16.4428 40.7037 16.5039 40.8617L19.5082 48.6574C19.5389 48.7416 19.5972 48.8148 19.675 48.8667C19.7528 48.9186 19.8461 48.9466 19.942 48.9468H22.8613C22.9563 48.9471 23.0491 48.92 23.1267 48.8693C23.2044 48.8186 23.2633 48.7468 23.2951 48.6638L24.1695 46.3936C24.2643 46.145 24.4399 45.9296 24.6721 45.7772C24.9043 45.6248 25.1817 45.5429 25.4662 45.5426H41.2059C41.4904 45.5429 41.7678 45.6248 42 45.7772C42.2322 45.9296 42.4078 46.145 42.5026 46.3936L43.377 48.6681C43.4089 48.7511 43.4677 48.8229 43.5454 48.8735C43.6231 48.9242 43.7158 48.9513 43.8108 48.9511H46.7302C46.8252 48.9513 46.9179 48.9242 46.9956 48.8735C47.0733 48.8229 47.1321 48.7511 47.1639 48.6681L51.318 37.883C51.4129 37.6343 51.5884 37.419 51.8206 37.2666C52.0528 37.1142 52.3303 37.0322 52.6148 37.0319H54.4508C55.0595 37.0319 55.6433 36.8078 56.0737 36.4087C56.5041 36.0097 56.7459 35.4685 56.7459 34.9043V28.0957Z" fill="#F29721"/>
</svg>
