<svg width="65" height="51" viewBox="0 0 65 51" fill="none" xmlns="http://www.w3.org/2000/svg">
<path d="M64.3359 50.832H36.6855V26.1523C36.6348 18.5352 39.0469 12.6445 43.9219 8.48047C48.0352 4.97656 53.5195 2.20898 60.375 0.177734L64.2598 8.4043C57.8105 10.791 53.9766 13.6094 52.7578 16.8594C52.1484 18.3828 51.8691 20.2109 51.9199 22.3438H64.3359V50.832ZM27.8496 50.832H0.199219V26.1523C0.199219 18.5352 2.63672 12.6445 7.51172 8.48047C11.625 4.97656 17.084 2.20898 23.8887 0.177734L27.6973 8.4043C21.3496 10.8926 17.5664 13.7109 16.3477 16.8594C15.7383 18.3828 15.4336 20.2109 15.4336 22.3438H27.8496V50.832Z" fill="#F29721"/>
</svg>
